<svg width="33" height="32" viewBox="0 0 33 32" fill="none" xmlns="http://www.w3.org/2000/svg">
<path d="M10.5432 10.0432C13.2674 7.31891 17.6851 7.31898 20.4094 10.0432C22.9665 12.6003 23.1225 16.6487 20.8791 19.3889L23.6955 22.2053L23.7854 22.3156C23.9644 22.5873 23.9346 22.9564 23.6955 23.1955C23.4564 23.4346 23.0873 23.4644 22.8156 23.2854L22.7053 23.1955L19.8889 20.3791C17.1487 22.6225 13.1003 22.4665 10.5432 19.9094C7.81898 17.1851 7.81891 12.7674 10.5432 10.0432ZM19.4191 11.0334C17.2416 8.85595 13.7109 8.85587 11.5334 11.0334C9.35587 13.2109 9.35595 16.7416 11.5334 18.9191C13.7007 21.0864 17.207 21.0953 19.3869 18.9484C19.3965 18.9376 19.4049 18.9256 19.4152 18.9152C19.4256 18.9049 19.4376 18.8965 19.4484 18.8869C21.5953 16.707 21.5864 13.2007 19.4191 11.0334Z" fill="#6B7280"/>
</svg>
