<svg width="33" height="32" viewBox="0 0 33 32" fill="none" xmlns="http://www.w3.org/2000/svg">
<path fill-rule="evenodd" clip-rule="evenodd" d="M9.07997 7.0256C8.38172 7.12712 7.75135 7.71245 7.55479 8.44174C7.49155 8.67647 7.48563 9.05127 7.54143 9.29303C7.58399 9.4776 13.2008 23.669 13.3367 23.9354C13.4469 24.1515 13.8188 24.5472 14.0528 24.6974C14.966 25.2833 16.2735 24.9892 16.8546 24.0672C16.9188 23.9653 17.3997 22.9389 17.9233 21.7864C18.4469 20.6338 18.9453 19.5824 19.0309 19.4499C19.2447 19.1193 19.5862 18.7706 19.9018 18.5608C20.0472 18.4642 20.7588 18.1164 21.4831 17.788C24.7857 16.2909 24.6416 16.3647 24.9799 15.9946C25.8123 15.0838 25.614 13.6131 24.5675 12.9368C24.4376 12.8528 23.7935 12.5712 23.1264 12.3067C22.463 12.0436 19.6881 10.9433 16.9601 9.8614C14.232 8.77959 11.505 7.70013 10.9 7.46261C9.72102 6.99972 9.54629 6.95776 9.07997 7.0256ZM9.23229 8.54214C9.09377 8.59794 9.00905 8.75991 9.02885 8.93123C9.03841 9.01403 10.3101 12.2678 11.8548 16.1618C14.8184 23.6328 14.7256 23.4167 15 23.4855C15.1591 23.5254 15.3644 23.4688 15.4889 23.3507C15.5687 23.2749 15.8923 22.6048 16.5554 21.1419C17.0788 19.9869 17.5788 18.9196 17.6664 18.7702C18.0814 18.0623 18.802 17.3931 19.5601 17.0119C19.7141 16.9345 20.5871 16.5341 21.5001 16.1222C23.9243 15.0287 23.8058 15.0874 23.8987 14.9351C24.0475 14.6909 23.9667 14.3031 23.742 14.1828C23.6618 14.1399 11.2491 9.21047 10.0313 8.73791C9.39353 8.49042 9.37309 8.48542 9.23229 8.54214Z" fill="#6B7280"/>
</svg>
