<svg width="253" height="127" viewBox="0 0 253 127" fill="none" xmlns="http://www.w3.org/2000/svg">
<path d="M29.7992 74.4115V75.951C29.7992 76.0279 29.7711 76.0945 29.7148 76.1508C29.6585 76.2052 29.59 76.2324 29.5093 76.2324C29.4287 76.2324 29.3602 76.2052 29.3039 76.1508C29.2495 76.0945 29.2223 76.0279 29.2223 75.951V74.2145C29.2223 74.1357 29.2495 74.0691 29.3039 74.0147L30.1792 73.1367C30.2129 73.1085 30.2298 73.0682 30.2298 73.0156V72.9988C30.2298 72.9331 30.2073 72.8796 30.1623 72.8383C30.1191 72.7952 30.0647 72.7736 29.999 72.7736H28.5018C28.4211 72.7736 28.3536 72.7455 28.2992 72.6892C28.2466 72.6329 28.2204 72.5635 28.2204 72.4809C28.2204 72.4021 28.2476 72.3355 28.302 72.2811C28.3564 72.2248 28.423 72.1967 28.5018 72.1967H30.5197C30.5966 72.1967 30.6623 72.2248 30.7167 72.2811C30.773 72.3374 30.8011 72.404 30.8011 72.4809V73.2126C30.8011 73.2933 30.7739 73.3609 30.7195 73.4153L29.8499 74.2905C29.8161 74.3187 29.7992 74.359 29.7992 74.4115ZM33.4733 74.6311H32.7641C32.6984 74.6311 32.643 74.6536 32.598 74.6986C32.5549 74.7418 32.5333 74.7943 32.5333 74.8562V75.951C32.5333 76.0279 32.5051 76.0945 32.4489 76.1508C32.3944 76.2052 32.3269 76.2324 32.2462 76.2324C32.1674 76.2324 32.1008 76.2052 32.0464 76.1508C31.992 76.0964 31.9648 76.0298 31.9648 75.951V72.4809C31.9648 72.4021 31.992 72.3355 32.0464 72.2811C32.1008 72.2248 32.1674 72.1967 32.2462 72.1967H33.6646C33.7397 72.1967 33.811 72.2257 33.8785 72.2839L34.4639 72.8721C34.5183 72.9265 34.5455 72.9959 34.5455 73.0804V73.7474C34.5455 73.828 34.5165 73.8975 34.4583 73.9556L34.236 74.1808C34.1891 74.2277 34.1656 74.2812 34.1656 74.3412C34.1656 74.4012 34.1891 74.4575 34.236 74.5101L34.4639 74.7352C34.5183 74.7896 34.5455 74.8562 34.5455 74.935V75.951C34.5455 76.0279 34.5174 76.0945 34.4611 76.1508C34.4067 76.2052 34.341 76.2324 34.2641 76.2324C34.1834 76.2324 34.1149 76.2052 34.0587 76.1508C34.0024 76.0945 33.9742 76.0279 33.9742 75.951V75.132C33.9742 75.0795 33.9573 75.0391 33.9236 75.011L33.5943 74.6817C33.5661 74.648 33.5258 74.6311 33.4733 74.6311ZM33.5943 74.0063L33.9236 73.6742C33.9573 73.646 33.9742 73.6076 33.9742 73.5588V73.2689C33.9742 73.2201 33.9573 73.1817 33.9236 73.1535L33.5943 72.8215C33.5624 72.7896 33.5221 72.7736 33.4733 72.7736H32.7641C32.6984 72.7736 32.643 72.7952 32.598 72.8383C32.5549 72.8796 32.5333 72.9331 32.5333 72.9988V73.829C32.5333 73.8946 32.5549 73.9491 32.598 73.9922C32.643 74.0335 32.6984 74.0541 32.7641 74.0541H33.4733C33.5221 74.0541 33.5624 74.0382 33.5943 74.0063Z" fill="#1F2937"/>
<path d="M53.214 74.4115V75.951C53.214 76.0279 53.1859 76.0945 53.1296 76.1508C53.0733 76.2052 53.0048 76.2324 52.9241 76.2324C52.8435 76.2324 52.775 76.2052 52.7187 76.1508C52.6643 76.0945 52.6371 76.0279 52.6371 75.951V74.2145C52.6371 74.1357 52.6643 74.0691 52.7187 74.0147L53.5939 73.1367C53.6277 73.1085 53.6446 73.0682 53.6446 73.0156V72.9988C53.6446 72.9331 53.6221 72.8796 53.5771 72.8383C53.5339 72.7952 53.4795 72.7736 53.4138 72.7736H51.9166C51.8359 72.7736 51.7684 72.7455 51.714 72.6892C51.6614 72.6329 51.6352 72.5635 51.6352 72.4809C51.6352 72.4021 51.6624 72.3355 51.7168 72.2811C51.7712 72.2248 51.8378 72.1967 51.9166 72.1967H53.9345C54.0114 72.1967 54.0771 72.2248 54.1315 72.2811C54.1878 72.3374 54.2159 72.404 54.2159 72.4809V73.2126C54.2159 73.2933 54.1887 73.3609 54.1343 73.4153L53.2647 74.2905C53.2309 74.3187 53.214 74.359 53.214 74.4115ZM55.9481 74.7408V75.9566C55.9481 76.0335 55.9199 76.1001 55.8637 76.1564C55.8092 76.2108 55.7417 76.2381 55.661 76.2381C55.5822 76.2381 55.5156 76.2108 55.4612 76.1564C55.4068 76.102 55.3796 76.0354 55.3796 75.9566V72.4809C55.3796 72.4021 55.4068 72.3355 55.4612 72.2811C55.5156 72.2248 55.5822 72.1967 55.661 72.1967H57.6789C57.7558 72.1967 57.8215 72.2248 57.8759 72.2811C57.9322 72.3374 57.9603 72.404 57.9603 72.4809C57.9603 72.5616 57.9322 72.631 57.8759 72.6892C57.8215 72.7455 57.7558 72.7736 57.6789 72.7736H56.1789C56.1132 72.7736 56.0578 72.7952 56.0128 72.8383C55.9697 72.8796 55.9481 72.9331 55.9481 72.9988V73.6967C55.9481 73.7624 55.9697 73.8187 56.0128 73.8656C56.0578 73.9106 56.1132 73.9331 56.1789 73.9331H57.2933C57.3721 73.9331 57.4387 73.9603 57.4932 74.0147C57.5476 74.0691 57.5748 74.1357 57.5748 74.2145C57.5748 74.2952 57.5466 74.3637 57.4903 74.42C57.4359 74.4763 57.3703 74.5044 57.2933 74.5044H56.1789C56.1132 74.5044 56.0578 74.5279 56.0128 74.5748C55.9697 74.6198 55.9481 74.6752 55.9481 74.7408Z" fill="#1F2937"/>
<path d="M68.4158 63.0675V60.9061C68.4158 60.8761 68.4083 60.8611 68.3932 60.8611C68.3801 60.8611 68.3679 60.8667 68.3567 60.878L68.1568 61.0806C68.1043 61.1332 68.0349 61.1594 67.9486 61.1594C67.8717 61.1594 67.8051 61.1322 67.7488 61.0778C67.6944 61.0215 67.6671 60.953 67.6671 60.8724C67.6671 60.7861 67.6934 60.7166 67.746 60.6641L68.4974 59.9155C68.5518 59.8611 68.6203 59.8339 68.7028 59.8339C68.7835 59.8339 68.852 59.862 68.9083 59.9183C68.9646 59.9746 68.9927 60.0412 68.9927 60.1181V63.0675C68.9927 63.1332 69.0133 63.1876 69.0546 63.2308C69.0978 63.2721 69.1522 63.2927 69.2178 63.2927H69.4599C69.5368 63.2927 69.6025 63.3218 69.6569 63.3799C69.7132 63.4381 69.7413 63.5075 69.7413 63.5882C69.7413 63.6651 69.7132 63.7317 69.6569 63.788C69.6025 63.8424 69.5368 63.8696 69.4599 63.8696H67.9486C67.8717 63.8696 67.8051 63.8424 67.7488 63.788C67.6944 63.7317 67.6671 63.6651 67.6671 63.5882C67.6671 63.5075 67.6944 63.4381 67.7488 63.3799C67.8051 63.3218 67.8717 63.2927 67.9486 63.2927H68.1906C68.2525 63.2927 68.3051 63.2721 68.3482 63.2308C68.3932 63.1876 68.4158 63.1332 68.4158 63.0675ZM72.1602 63.0675V60.9061C72.1602 60.8761 72.1527 60.8611 72.1377 60.8611C72.1245 60.8611 72.1123 60.8667 72.1011 60.878L71.9013 61.0806C71.8487 61.1332 71.7793 61.1594 71.693 61.1594C71.6161 61.1594 71.5495 61.1322 71.4932 61.0778C71.4388 61.0215 71.4116 60.953 71.4116 60.8724C71.4116 60.7861 71.4378 60.7166 71.4904 60.6641L72.2418 59.9155C72.2962 59.8611 72.3647 59.8339 72.4472 59.8339C72.5279 59.8339 72.5964 59.862 72.6527 59.9183C72.709 59.9746 72.7371 60.0412 72.7371 60.1181V63.0675C72.7371 63.1332 72.7578 63.1876 72.799 63.2308C72.8422 63.2721 72.8966 63.2927 72.9623 63.2927H73.2043C73.2812 63.2927 73.3469 63.3218 73.4013 63.3799C73.4576 63.4381 73.4857 63.5075 73.4857 63.5882C73.4857 63.6651 73.4576 63.7317 73.4013 63.788C73.3469 63.8424 73.2812 63.8696 73.2043 63.8696H71.693C71.6161 63.8696 71.5495 63.8424 71.4932 63.788C71.4388 63.7317 71.4116 63.6651 71.4116 63.5882C71.4116 63.5075 71.4388 63.4381 71.4932 63.3799C71.5495 63.3218 71.6161 63.2927 71.693 63.2927H71.935C71.9969 63.2927 72.0495 63.2721 72.0926 63.2308C72.1377 63.1876 72.1602 63.1332 72.1602 63.0675Z" fill="#1F2937"/>
<path d="M75.8934 41.151V41.2213C75.8934 41.272 75.9112 41.3123 75.9468 41.3424L76.1607 41.5506C76.1889 41.5844 76.2273 41.6013 76.2761 41.6013H76.9544C77.0032 41.6013 77.0416 41.5844 77.0698 41.5506L77.2836 41.3424C77.3174 41.3142 77.3343 41.2739 77.3343 41.2213V40.7035C77.3343 40.651 77.3174 40.6106 77.2836 40.5825L77.0698 40.3686C77.0397 40.3386 77.0013 40.3236 76.9544 40.3236H76.0847C76.0041 40.3236 75.9346 40.2945 75.8765 40.2363L75.398 39.7635C75.3493 39.7016 75.3249 39.6322 75.3249 39.5553V38.4267C75.3249 38.3479 75.3521 38.2813 75.4065 38.2269C75.4609 38.1706 75.5275 38.1425 75.6063 38.1425H77.6242C77.7011 38.1425 77.7668 38.1706 77.8212 38.2269C77.8775 38.2832 77.9056 38.3498 77.9056 38.4267C77.9056 38.5093 77.8784 38.5787 77.824 38.635C77.7696 38.6913 77.703 38.7194 77.6242 38.7194H76.1241C76.0585 38.7194 76.0031 38.741 75.9581 38.7841C75.9149 38.8254 75.8934 38.8789 75.8934 38.9446V39.3667C75.8934 39.4174 75.9112 39.4577 75.9468 39.4877L76.1607 39.6932C76.1907 39.7288 76.2292 39.7466 76.2761 39.7466H77.1401C77.2264 39.7466 77.2977 39.7748 77.354 39.8311L77.824 40.3039C77.8784 40.347 77.9056 40.4165 77.9056 40.5121V41.4184C77.9056 41.4972 77.8784 41.5638 77.824 41.6182L77.354 42.091C77.2958 42.1491 77.2245 42.1782 77.1401 42.1782H76.0847C76.0041 42.1782 75.9346 42.1491 75.8765 42.091L75.398 41.6182C75.3493 41.5563 75.3249 41.4896 75.3249 41.4184V41.151C75.3249 41.0722 75.3521 41.0056 75.4065 40.9512C75.4609 40.8968 75.5275 40.8696 75.6063 40.8696C75.687 40.8696 75.7545 40.8977 75.8089 40.954C75.8652 41.0084 75.8934 41.0741 75.8934 41.151Z" fill="#1F2937"/>
<path d="M68.1835 22.8693V20.7079C68.1835 20.6779 68.176 20.6629 68.161 20.6629C68.1479 20.6629 68.1357 20.6685 68.1244 20.6798L67.9246 20.8824C67.8721 20.9349 67.8027 20.9612 67.7163 20.9612C67.6394 20.9612 67.5728 20.934 67.5165 20.8796C67.4621 20.8233 67.4349 20.7548 67.4349 20.6741C67.4349 20.5878 67.4612 20.5184 67.5137 20.4659L68.2651 19.7172C68.3195 19.6628 68.388 19.6356 68.4706 19.6356C68.5513 19.6356 68.6197 19.6638 68.676 19.7201C68.7323 19.7763 68.7605 19.843 68.7605 19.9199V22.8693C68.7605 22.935 68.7811 22.9894 68.8224 23.0325C68.8655 23.0738 68.9199 23.0944 68.9856 23.0944H69.2276C69.3046 23.0944 69.3702 23.1235 69.4246 23.1817C69.4809 23.2399 69.5091 23.3093 69.5091 23.39C69.5091 23.4669 69.4809 23.5335 69.4246 23.5898C69.3702 23.6442 69.3046 23.6714 69.2276 23.6714H67.7163C67.6394 23.6714 67.5728 23.6442 67.5165 23.5898C67.4621 23.5335 67.4349 23.4669 67.4349 23.39C67.4349 23.3093 67.4621 23.2399 67.5165 23.1817C67.5728 23.1235 67.6394 23.0944 67.7163 23.0944H67.9584C68.0203 23.0944 68.0728 23.0738 68.116 23.0325C68.161 22.9894 68.1835 22.935 68.1835 22.8693ZM71.5536 21.9012L72.8454 20.6178C72.8567 20.6066 72.8623 20.5944 72.8623 20.5812C72.8623 20.57 72.8567 20.5587 72.8454 20.5475L72.5555 20.2604C72.5236 20.2285 72.4833 20.2126 72.4345 20.2126H71.9983C71.9495 20.2126 71.9092 20.2285 71.8773 20.2604L71.548 20.5925C71.5124 20.6225 71.4945 20.661 71.4945 20.7079V21.873C71.4945 21.903 71.503 21.9181 71.5199 21.9181C71.5311 21.9181 71.5424 21.9124 71.5536 21.9012ZM72.8792 21.4058L71.5874 22.692C71.5724 22.707 71.5649 22.7183 71.5649 22.7258C71.5649 22.7333 71.5724 22.7445 71.5874 22.7595L71.8773 23.0438C71.9054 23.0776 71.9458 23.0944 71.9983 23.0944H72.4345C72.4871 23.0944 72.5274 23.0776 72.5555 23.0438L72.8848 22.7145C72.9186 22.6864 72.9355 22.6479 72.9355 22.5991V21.434C72.9355 21.404 72.928 21.389 72.913 21.389C72.9017 21.389 72.8904 21.3946 72.8792 21.4058ZM70.9992 20.3111L71.5987 19.7285C71.6474 19.6666 71.715 19.6356 71.8013 19.6356H72.6259C72.7084 19.6356 72.7769 19.6628 72.8313 19.7172L73.4195 20.3111C73.4777 20.3692 73.5068 20.4387 73.5068 20.5193V22.7905C73.5068 22.8731 73.4777 22.9434 73.4195 23.0016L72.8313 23.5898C72.7769 23.6442 72.7084 23.6714 72.6259 23.6714H71.8013C71.7244 23.6714 71.6568 23.6423 71.5987 23.5841L70.9992 22.9959C70.9504 22.9472 70.926 22.8787 70.926 22.7905V20.5193C70.926 20.4293 70.9504 20.3599 70.9992 20.3111Z" fill="#1F2937"/>
<path d="M52.5864 5.94671H53.4138C53.4795 5.94671 53.5339 5.92607 53.5771 5.88479C53.6221 5.84164 53.6446 5.78723 53.6446 5.72156V4.37349C53.6446 4.29657 53.6728 4.22996 53.729 4.17368C53.7853 4.11739 53.8538 4.08925 53.9345 4.08925C54.0114 4.08925 54.0771 4.11739 54.1315 4.17368C54.1878 4.22996 54.2159 4.29657 54.2159 4.37349V7.84357C54.2159 7.92049 54.1878 7.9871 54.1315 8.04338C54.0771 8.09779 54.0114 8.125 53.9345 8.125C53.8538 8.125 53.7853 8.09779 53.729 8.04338C53.6728 7.9871 53.6446 7.92049 53.6446 7.84357V6.74879C53.6446 6.68688 53.6221 6.63434 53.5771 6.59119C53.5339 6.54616 53.4795 6.52364 53.4138 6.52364H52.395C52.3144 6.52364 52.2449 6.49456 52.1868 6.4364L51.7083 5.96359C51.6596 5.91481 51.6352 5.84539 51.6352 5.75533V4.37349C51.6352 4.29469 51.6624 4.22809 51.7168 4.17368C51.7712 4.11739 51.8378 4.08925 51.9166 4.08925C51.9973 4.08925 52.0648 4.11739 52.1192 4.17368C52.1755 4.22996 52.2037 4.29657 52.2037 4.37349V5.56677C52.2037 5.61743 52.2215 5.65777 52.2571 5.68779L52.471 5.89886C52.5029 5.93076 52.5414 5.94671 52.5864 5.94671ZM55.9481 6.6334V7.8492C55.9481 7.92612 55.9199 7.99273 55.8637 8.04901C55.8092 8.10342 55.7417 8.13063 55.661 8.13063C55.5822 8.13063 55.5156 8.10342 55.4612 8.04901C55.4068 7.9946 55.3796 7.928 55.3796 7.8492V4.37349C55.3796 4.29469 55.4068 4.22809 55.4612 4.17368C55.5156 4.11739 55.5822 4.08925 55.661 4.08925H57.6789C57.7558 4.08925 57.8215 4.11739 57.8759 4.17368C57.9322 4.22996 57.9603 4.29657 57.9603 4.37349C57.9603 4.45417 57.9322 4.52359 57.8759 4.58175C57.8215 4.63804 57.7558 4.66618 57.6789 4.66618H56.1789C56.1132 4.66618 56.0578 4.68776 56.0128 4.73091C55.9697 4.77219 55.9481 4.82566 55.9481 4.89133V5.58929C55.9481 5.65495 55.9697 5.71124 56.0128 5.75815C56.0578 5.80318 56.1132 5.82569 56.1789 5.82569H57.2933C57.3721 5.82569 57.4387 5.8529 57.4932 5.90731C57.5476 5.96172 57.5748 6.02832 57.5748 6.10712C57.5748 6.1878 57.5466 6.25628 57.4903 6.31257C57.4359 6.36886 57.3703 6.397 57.2933 6.397H56.1789C56.1132 6.397 56.0578 6.42045 56.0128 6.46736C55.9697 6.51239 55.9481 6.56774 55.9481 6.6334Z" fill="#1F2937"/>
<path d="M25.1955 5.94671H26.023C26.0886 5.94671 26.143 5.92607 26.1862 5.88479C26.2312 5.84164 26.2537 5.78723 26.2537 5.72156V4.37349C26.2537 4.29657 26.2819 4.22996 26.3382 4.17368C26.3945 4.11739 26.4629 4.08925 26.5436 4.08925C26.6205 4.08925 26.6862 4.11739 26.7406 4.17368C26.7969 4.22996 26.825 4.29657 26.825 4.37349V7.84357C26.825 7.92049 26.7969 7.9871 26.7406 8.04338C26.6862 8.09779 26.6205 8.125 26.5436 8.125C26.4629 8.125 26.3945 8.09779 26.3382 8.04338C26.2819 7.9871 26.2537 7.92049 26.2537 7.84357V6.74879C26.2537 6.68688 26.2312 6.63434 26.1862 6.59119C26.143 6.54616 26.0886 6.52364 26.023 6.52364H25.0042C24.9235 6.52364 24.8541 6.49456 24.7959 6.4364L24.3175 5.96359C24.2687 5.91481 24.2443 5.84539 24.2443 5.75533V4.37349C24.2443 4.29469 24.2715 4.22809 24.3259 4.17368C24.3803 4.11739 24.4469 4.08925 24.5257 4.08925C24.6064 4.08925 24.674 4.11739 24.7284 4.17368C24.7847 4.22996 24.8128 4.29657 24.8128 4.37349V5.56677C24.8128 5.61743 24.8306 5.65777 24.8663 5.68779L25.0802 5.89886C25.1121 5.93076 25.1505 5.94671 25.1955 5.94671ZM29.4972 6.52364H28.788C28.7223 6.52364 28.667 6.54616 28.6219 6.59119C28.5788 6.63434 28.5572 6.68688 28.5572 6.74879V7.84357C28.5572 7.92049 28.5291 7.9871 28.4728 8.04338C28.4184 8.09779 28.3508 8.125 28.2702 8.125C28.1913 8.125 28.1247 8.09779 28.0703 8.04338C28.0159 7.98897 27.9887 7.92237 27.9887 7.84357V4.37349C27.9887 4.29469 28.0159 4.22809 28.0703 4.17368C28.1247 4.11739 28.1913 4.08925 28.2702 4.08925H29.6886C29.7636 4.08925 29.8349 4.11833 29.9025 4.17649L30.4878 4.76469C30.5423 4.8191 30.5695 4.88852 30.5695 4.97295V5.63994C30.5695 5.72062 30.5404 5.79004 30.4822 5.8482L30.2599 6.07335C30.213 6.12026 30.1895 6.17373 30.1895 6.23377C30.1895 6.29381 30.213 6.35009 30.2599 6.40263L30.4878 6.62777C30.5423 6.68219 30.5695 6.74879 30.5695 6.82759V7.84357C30.5695 7.92049 30.5413 7.9871 30.485 8.04338C30.4306 8.09779 30.365 8.125 30.288 8.125C30.2074 8.125 30.1389 8.09779 30.0826 8.04338C30.0263 7.9871 29.9982 7.92049 29.9982 7.84357V7.0246C29.9982 6.97206 29.9813 6.93172 29.9475 6.90358L29.6182 6.5743C29.5901 6.54053 29.5497 6.52364 29.4972 6.52364ZM29.6182 5.89886L29.9475 5.56677C29.9813 5.53863 29.9982 5.50017 29.9982 5.45138V5.16151C29.9982 5.11273 29.9813 5.07426 29.9475 5.04612L29.6182 4.71403C29.5863 4.68213 29.546 4.66618 29.4972 4.66618H28.788C28.7223 4.66618 28.667 4.68776 28.6219 4.73091C28.5788 4.77219 28.5572 4.82566 28.5572 4.89133V5.72156C28.5572 5.78723 28.5788 5.84164 28.6219 5.88479C28.667 5.92607 28.7223 5.94671 28.788 5.94671H29.4972C29.546 5.94671 29.5863 5.93076 29.6182 5.89886Z" fill="#1F2937"/>
<path d="M7.47887 22.8693V20.7079C7.47887 20.6779 7.47137 20.6629 7.45636 20.6629C7.44322 20.6629 7.43103 20.6685 7.41977 20.6798L7.21995 20.8824C7.16742 20.9349 7.098 20.9612 7.01169 20.9612C6.93477 20.9612 6.86816 20.934 6.81188 20.8796C6.75747 20.8233 6.73026 20.7548 6.73026 20.6741C6.73026 20.5878 6.75653 20.5184 6.80906 20.4659L7.56049 19.7172C7.6149 19.6628 7.68338 19.6356 7.76593 19.6356C7.84661 19.6356 7.91509 19.6638 7.97138 19.7201C8.02767 19.7763 8.05581 19.843 8.05581 19.9199V22.8693C8.05581 22.935 8.07645 22.9894 8.11773 23.0325C8.16088 23.0738 8.21529 23.0944 8.28096 23.0944H8.52299C8.59992 23.0944 8.66558 23.1235 8.71999 23.1817C8.77628 23.2399 8.80442 23.3093 8.80442 23.39C8.80442 23.4669 8.77628 23.5335 8.71999 23.5898C8.66558 23.6442 8.59992 23.6714 8.52299 23.6714H7.01169C6.93477 23.6714 6.86816 23.6442 6.81188 23.5898C6.75747 23.5335 6.73026 23.4669 6.73026 23.39C6.73026 23.3093 6.75747 23.2399 6.81188 23.1817C6.86816 23.1235 6.93477 23.0944 7.01169 23.0944H7.25373C7.31564 23.0944 7.36818 23.0738 7.41133 23.0325C7.45636 22.9894 7.47887 22.935 7.47887 22.8693ZM10.7899 20.5925V20.6572C10.7899 20.7379 10.7617 20.8064 10.7054 20.8627C10.651 20.9171 10.5835 20.9443 10.5028 20.9443C10.4221 20.9443 10.3546 20.9171 10.3002 20.8627C10.2477 20.8064 10.2214 20.7379 10.2214 20.6572V20.3983C10.2214 20.3251 10.2458 20.2576 10.2946 20.1957L10.773 19.7229C10.8312 19.6647 10.9006 19.6356 10.9813 19.6356H12.0423C12.1229 19.6356 12.1924 19.6647 12.2505 19.7229L12.7205 20.1957C12.7749 20.2501 12.8021 20.3176 12.8021 20.3983V21.1751C12.8021 21.2595 12.7749 21.3289 12.7205 21.3833L12.6136 21.4931C12.5667 21.54 12.5432 21.5935 12.5432 21.6535C12.5432 21.7192 12.5667 21.7755 12.6136 21.8224L12.7205 21.9321C12.7749 21.9865 12.8021 22.055 12.8021 22.1376V22.9115C12.8021 22.9903 12.7749 23.0569 12.7205 23.1113L12.2505 23.5841C12.1924 23.6423 12.1229 23.6714 12.0423 23.6714H10.9813C10.9006 23.6714 10.8312 23.6423 10.773 23.5841L10.2946 23.1113C10.2458 23.0494 10.2214 22.9828 10.2214 22.9115V22.6442C10.2214 22.5672 10.2477 22.5025 10.3002 22.45C10.3546 22.3956 10.4221 22.3684 10.5028 22.3684C10.5835 22.3684 10.651 22.3956 10.7054 22.45C10.7617 22.5025 10.7899 22.5672 10.7899 22.6442V22.7145C10.7899 22.7652 10.8077 22.8055 10.8434 22.8355L11.0572 23.0438C11.0854 23.0776 11.1238 23.0944 11.1726 23.0944H11.8509C11.8997 23.0944 11.9381 23.0776 11.9663 23.0438L12.1802 22.8355C12.2139 22.8074 12.2308 22.767 12.2308 22.7145V22.3289C12.2308 22.2802 12.2139 22.2417 12.1802 22.2136L11.9663 21.994C11.9325 21.9603 11.894 21.9434 11.8509 21.9434H11.2008C11.1201 21.9434 11.0516 21.9152 10.9953 21.859C10.939 21.8027 10.9109 21.7342 10.9109 21.6535C10.9109 21.5747 10.939 21.5081 10.9953 21.4537C11.0516 21.3993 11.1201 21.3721 11.2008 21.3721H11.8509C11.8922 21.3721 11.9306 21.3543 11.9663 21.3186L12.1802 21.1019C12.2139 21.0738 12.2308 21.0353 12.2308 20.9865V20.5925C12.2308 20.54 12.2139 20.4996 12.1802 20.4715L11.9663 20.2604C11.9344 20.2285 11.8959 20.2126 11.8509 20.2126H11.1726C11.1276 20.2126 11.0891 20.2285 11.0572 20.2604L10.8434 20.4715C10.8077 20.5015 10.7899 20.5418 10.7899 20.5925Z" fill="#1F2937"/>
<path d="M3.9941 40.7204L3.78021 40.5009C3.74643 40.4671 3.70797 40.4502 3.66482 40.4502H2.98656C2.94341 40.4502 2.90495 40.4671 2.87118 40.5009L2.65729 40.7204C2.62164 40.7504 2.60381 40.7889 2.60381 40.8358V41.2213C2.60381 41.272 2.62164 41.3123 2.65729 41.3424L2.87118 41.5506C2.89932 41.5844 2.93778 41.6013 2.98656 41.6013H3.66482C3.7136 41.6013 3.75206 41.5844 3.78021 41.5506L3.9941 41.3424C4.02787 41.3142 4.04475 41.2739 4.04475 41.2213V40.8358C4.04475 40.787 4.02787 40.7485 3.9941 40.7204ZM3.9941 38.9783L3.78021 38.7673C3.74831 38.7354 3.70985 38.7194 3.66482 38.7194H2.98656C2.94153 38.7194 2.90307 38.7354 2.87118 38.7673L2.65729 38.9783C2.62164 39.0083 2.60381 39.0487 2.60381 39.0993V39.4933C2.60381 39.5403 2.62164 39.5787 2.65729 39.6087L2.87118 39.8254C2.90682 39.8611 2.94529 39.8789 2.98656 39.8789H3.66482C3.7061 39.8789 3.74456 39.8611 3.78021 39.8254L3.9941 39.6087C4.02787 39.5806 4.04475 39.5421 4.04475 39.4933V39.0993C4.04475 39.0468 4.02787 39.0065 3.9941 38.9783ZM3.85619 42.1782H2.79519C2.71451 42.1782 2.64509 42.1491 2.58693 42.091L2.10849 41.6182C2.05971 41.5563 2.03532 41.4896 2.03532 41.4184V40.6444C2.03532 40.5562 2.05971 40.4877 2.10849 40.439L2.22388 40.3292C2.27079 40.2823 2.29424 40.226 2.29424 40.1603C2.29424 40.1003 2.27079 40.0468 2.22388 39.9999L2.10849 39.8902C2.05971 39.8414 2.03532 39.772 2.03532 39.6819V38.9052C2.03532 38.832 2.05971 38.7644 2.10849 38.7025L2.58693 38.2297C2.64509 38.1716 2.71451 38.1425 2.79519 38.1425H3.85619C3.93687 38.1425 4.00629 38.1716 4.06445 38.2297L4.53445 38.7025C4.58886 38.7569 4.61606 38.8245 4.61606 38.9052V39.6819C4.61606 39.7663 4.58886 39.8358 4.53445 39.8902L4.4275 39.9999C4.3806 40.0468 4.35714 40.1003 4.35714 40.1603C4.35714 40.226 4.3806 40.2823 4.4275 40.3292L4.53445 40.439C4.58886 40.4934 4.61606 40.5619 4.61606 40.6444V41.4184C4.61606 41.4972 4.58886 41.5638 4.53445 41.6182L4.06445 42.091C4.00629 42.1491 3.93687 42.1782 3.85619 42.1782Z" fill="#1F2937"/>
<path d="M9.62548 63.0675V60.9061C9.62548 60.8761 9.61797 60.8611 9.60296 60.8611C9.58983 60.8611 9.57764 60.8667 9.56638 60.878L9.36656 61.0806C9.31403 61.1332 9.24461 61.1594 9.1583 61.1594C9.08137 61.1594 9.01477 61.1322 8.95848 61.0778C8.90407 61.0215 8.87687 60.953 8.87687 60.8724C8.87687 60.7861 8.90313 60.7166 8.95567 60.6641L9.70709 59.9155C9.76151 59.8611 9.82999 59.8339 9.91254 59.8339C9.99322 59.8339 10.0617 59.862 10.118 59.9183C10.1743 59.9746 10.2024 60.0412 10.2024 60.1181V63.0675C10.2024 63.1332 10.2231 63.1876 10.2643 63.2308C10.3075 63.2721 10.3619 63.2927 10.4276 63.2927H10.6696C10.7465 63.2927 10.8122 63.3218 10.8666 63.3799C10.9229 63.4381 10.951 63.5075 10.951 63.5882C10.951 63.6651 10.9229 63.7317 10.8666 63.788C10.8122 63.8424 10.7465 63.8696 10.6696 63.8696H9.1583C9.08137 63.8696 9.01477 63.8424 8.95848 63.788C8.90407 63.7317 8.87687 63.6651 8.87687 63.5882C8.87687 63.5075 8.90407 63.4381 8.95848 63.3799C9.01477 63.3218 9.08137 63.2927 9.1583 63.2927H9.40033C9.46225 63.2927 9.51478 63.2721 9.55793 63.2308C9.60296 63.1876 9.62548 63.1332 9.62548 63.0675ZM12.9365 60.7907V60.8555C12.9365 60.9362 12.9083 61.0046 12.8521 61.0609C12.7976 61.1153 12.7301 61.1425 12.6494 61.1425C12.5687 61.1425 12.5012 61.1153 12.4468 61.0609C12.3943 61.0046 12.368 60.9362 12.368 60.8555V60.5966C12.368 60.5234 12.3924 60.4558 12.4412 60.3939L12.9196 59.9211C12.9778 59.863 13.0472 59.8339 13.1279 59.8339H14.1889C14.2695 59.8339 14.339 59.863 14.3971 59.9211L14.8671 60.3996C14.9215 60.454 14.9487 60.5196 14.9487 60.5966V60.9484C14.9487 61.0309 14.9215 61.0994 14.8671 61.1538L12.99 63.0338C12.9618 63.0619 12.9477 63.091 12.9477 63.121C12.9477 63.1736 12.9693 63.2158 13.0125 63.2477C13.0575 63.2777 13.1091 63.2927 13.1673 63.2927H14.6673C14.7442 63.2927 14.8099 63.3218 14.8643 63.3799C14.9206 63.4381 14.9487 63.5075 14.9487 63.5882C14.9487 63.6651 14.9206 63.7317 14.8643 63.788C14.8099 63.8424 14.7442 63.8696 14.6673 63.8696H12.6494C12.5706 63.8696 12.504 63.8424 12.4496 63.788C12.3952 63.7336 12.368 63.667 12.368 63.5882V62.9578C12.368 62.8734 12.3924 62.8067 12.4412 62.758L14.338 60.8611C14.3643 60.8461 14.3774 60.817 14.3774 60.7739C14.3774 60.7382 14.3643 60.7073 14.338 60.681L14.1129 60.4587C14.081 60.4268 14.0425 60.4108 13.9975 60.4108H13.3192C13.2742 60.4108 13.2357 60.4268 13.2038 60.4587L12.99 60.6697C12.9543 60.6998 12.9365 60.7401 12.9365 60.7907Z" fill="#1F2937"/>
<mask id="path-11-outside-1_1139_13682" maskUnits="userSpaceOnUse" x="39.4513" y="10.8354" width="16" height="7" fill="black">
<rect fill="white" x="39.4513" y="10.8354" width="16" height="7"/>
<path d="M40.3082 12.7012C40.3082 12.223 40.696 11.8341 41.1739 11.8484C45.7532 11.9858 50.2344 13.2117 54.2459 15.4245C54.6646 15.6555 54.8003 16.1876 54.5569 16.5992C54.3136 17.0107 53.7833 17.1457 53.3642 16.9156C49.6201 14.8597 45.4431 13.717 41.1738 13.5807C40.696 13.5654 40.3082 13.1793 40.3082 12.7012Z"/>
</mask>
<path d="M40.3082 12.7012C40.3082 12.223 40.696 11.8341 41.1739 11.8484C45.7532 11.9858 50.2344 13.2117 54.2459 15.4245C54.6646 15.6555 54.8003 16.1876 54.5569 16.5992C54.3136 17.0107 53.7833 17.1457 53.3642 16.9156C49.6201 14.8597 45.4431 13.717 41.1738 13.5807C40.696 13.5654 40.3082 13.1793 40.3082 12.7012Z" fill="#FFD028"/>
<path d="M40.3082 12.7012C40.3082 12.223 40.696 11.8341 41.1739 11.8484C45.7532 11.9858 50.2344 13.2117 54.2459 15.4245C54.6646 15.6555 54.8003 16.1876 54.5569 16.5992C54.3136 17.0107 53.7833 17.1457 53.3642 16.9156C49.6201 14.8597 45.4431 13.717 41.1738 13.5807C40.696 13.5654 40.3082 13.1793 40.3082 12.7012Z" stroke="#E5E7EB" stroke-width="0.69165" mask="url(#path-11-outside-1_1139_13682)"/>
<mask id="path-12-outside-2_1139_13682" maskUnits="userSpaceOnUse" x="53.0499" y="16.0342" width="17.0588" height="15.0677" fill="black">
<rect fill="white" x="53.0499" y="16.0342" width="17.0588" height="15.0677"/>
<path d="M56.761 18.0473C57.0421 17.6605 57.5844 17.5737 57.9626 17.8662C61.5866 20.6691 64.4913 24.2948 66.4361 28.4429C66.6391 28.8759 66.4361 29.3862 65.9973 29.576C65.5585 29.7659 65.0501 29.5635 64.8463 29.1309C63.0258 25.267 60.3181 21.8873 56.9444 19.2676C56.5667 18.9744 56.48 18.4341 56.761 18.0473Z"/>
</mask>
<path d="M56.761 18.0473C57.0421 17.6605 57.5844 17.5737 57.9626 17.8662C61.5866 20.6691 64.4913 24.2948 66.4361 28.4429C66.6391 28.8759 66.4361 29.3862 65.9973 29.576C65.5585 29.7659 65.0501 29.5635 64.8463 29.1309C63.0258 25.267 60.3181 21.8873 56.9444 19.2676C56.5667 18.9744 56.48 18.4341 56.761 18.0473Z" fill="black" fill-opacity="0.2"/>
<path d="M56.761 18.0473C57.0421 17.6605 57.5844 17.5737 57.9626 17.8662C61.5866 20.6691 64.4913 24.2948 66.4361 28.4429C66.6391 28.8759 66.4361 29.3862 65.9973 29.576C65.5585 29.7659 65.0501 29.5635 64.8463 29.1309C63.0258 25.267 60.3181 21.8873 56.9444 19.2676C56.5667 18.9744 56.48 18.4341 56.761 18.0473Z" stroke="#E5E7EB" stroke-width="0.69165" mask="url(#path-12-outside-2_1139_13682)"/>
<mask id="path-13-outside-3_1139_13682" maskUnits="userSpaceOnUse" x="61.7813" y="30.6511" width="11.6017" height="17.38" fill="black">
<rect fill="white" x="61.7813" y="30.6511" width="11.6017" height="17.38"/>
<path d="M66.9292 32.0427C67.3839 31.8949 67.8736 32.1435 68.0076 32.6024C69.2921 37.0001 69.5109 41.6408 68.646 46.1398C68.5558 46.6093 68.0916 46.9028 67.625 46.7985C67.1584 46.6942 66.8661 46.2316 66.9555 45.7619C67.7538 41.5658 67.5498 37.2401 66.3602 33.1377C66.227 32.6785 66.4744 32.1904 66.9292 32.0427Z"/>
</mask>
<path d="M66.9292 32.0427C67.3839 31.8949 67.8736 32.1435 68.0076 32.6024C69.2921 37.0001 69.5109 41.6408 68.646 46.1398C68.5558 46.6093 68.0916 46.9028 67.625 46.7985C67.1584 46.6942 66.8661 46.2316 66.9555 45.7619C67.7538 41.5658 67.5498 37.2401 66.3602 33.1377C66.227 32.6785 66.4744 32.1904 66.9292 32.0427Z" fill="black" fill-opacity="0.2"/>
<path d="M66.9292 32.0427C67.3839 31.8949 67.8736 32.1435 68.0076 32.6024C69.2921 37.0001 69.5109 41.6408 68.646 46.1398C68.5558 46.6093 68.0916 46.9028 67.625 46.7985C67.1584 46.6942 66.8661 46.2316 66.9555 45.7619C67.7538 41.5658 67.5498 37.2401 66.3602 33.1377C66.227 32.6785 66.4744 32.1904 66.9292 32.0427Z" stroke="#E5E7EB" stroke-width="0.69165" mask="url(#path-13-outside-3_1139_13682)"/>
<mask id="path-14-outside-4_1139_13682" maskUnits="userSpaceOnUse" x="57.3664" y="46.9405" width="11.6017" height="17.38" fill="black">
<rect fill="white" x="57.3664" y="46.9405" width="11.6017" height="17.38"/>
<path d="M66.9289 49.3421C67.3836 49.4899 67.6337 49.9788 67.4724 50.4289C65.9266 54.7416 63.3759 58.6246 60.0318 61.7561C59.6828 62.0829 59.1347 62.0475 58.8186 61.6889C58.5024 61.3302 58.5378 60.7842 58.8862 60.4567C61.9985 57.5312 64.376 53.9117 65.8249 49.8935C65.9871 49.4438 66.4742 49.1944 66.9289 49.3421Z"/>
</mask>
<path d="M66.9289 49.3421C67.3836 49.4899 67.6337 49.9788 67.4724 50.4289C65.9266 54.7416 63.3759 58.6246 60.0318 61.7561C59.6828 62.0829 59.1347 62.0475 58.8186 61.6889C58.5024 61.3302 58.5378 60.7842 58.8862 60.4567C61.9985 57.5312 64.376 53.9117 65.8249 49.8935C65.9871 49.4438 66.4742 49.1944 66.9289 49.3421Z" fill="black" fill-opacity="0.2"/>
<path d="M66.9289 49.3421C67.3836 49.4899 67.6337 49.9788 67.4724 50.4289C65.9266 54.7416 63.3759 58.6246 60.0318 61.7561C59.6828 62.0829 59.1347 62.0475 58.8186 61.6889C58.5024 61.3302 58.5378 60.7842 58.8862 60.4567C61.9985 57.5312 64.376 53.9117 65.8249 49.8935C65.9871 49.4438 66.4742 49.1944 66.9289 49.3421Z" stroke="#E5E7EB" stroke-width="0.69165" mask="url(#path-14-outside-4_1139_13682)"/>
<mask id="path-15-outside-5_1139_13682" maskUnits="userSpaceOnUse" x="41.4914" y="58.6805" width="17.0588" height="15.0677" fill="black">
<rect fill="white" x="41.4914" y="58.6805" width="17.0588" height="15.0677"/>
<path d="M56.7603 63.338C57.0413 63.7248 56.9562 64.2673 56.5612 64.5366C52.7756 67.1172 48.4297 68.7593 43.8837 69.3271C43.4092 69.3863 42.9866 69.0356 42.9416 68.5596C42.8966 68.0836 43.2463 67.6627 43.7206 67.6025C47.9581 67.0651 52.009 65.5343 55.543 63.1352C55.9386 62.8667 56.4792 62.9512 56.7603 63.338Z"/>
</mask>
<path d="M56.7603 63.338C57.0413 63.7248 56.9562 64.2673 56.5612 64.5366C52.7756 67.1172 48.4297 68.7593 43.8837 69.3271C43.4092 69.3863 42.9866 69.0356 42.9416 68.5596C42.8966 68.0836 43.2463 67.6627 43.7206 67.6025C47.9581 67.0651 52.009 65.5343 55.543 63.1352C55.9386 62.8667 56.4792 62.9512 56.7603 63.338Z" fill="black" fill-opacity="0.2"/>
<path d="M56.7603 63.338C57.0413 63.7248 56.9562 64.2673 56.5612 64.5366C52.7756 67.1172 48.4297 68.7593 43.8837 69.3271C43.4092 69.3863 42.9866 69.0356 42.9416 68.5596C42.8966 68.0836 43.2463 67.6627 43.7206 67.6025C47.9581 67.0651 52.009 65.5343 55.543 63.1352C55.9386 62.8667 56.4792 62.9512 56.7603 63.338Z" stroke="#E5E7EB" stroke-width="0.69165" mask="url(#path-15-outside-5_1139_13682)"/>
<mask id="path-16-outside-6_1139_13682" maskUnits="userSpaceOnUse" x="25.1647" y="63.5493" width="16" height="7" fill="black">
<rect fill="white" x="25.1647" y="63.5493" width="16" height="7"/>
<path d="M40.3077 68.6836C40.3077 69.1617 39.92 69.5507 39.4421 69.5363C34.8628 69.3989 30.3816 68.173 26.37 65.9602C25.9514 65.7293 25.8156 65.1971 26.059 64.7856C26.3024 64.3741 26.8327 64.2391 27.2518 64.4692C30.9959 66.5251 35.1729 67.6678 39.4421 67.8041C39.92 67.8193 40.3077 68.2055 40.3077 68.6836Z"/>
</mask>
<path d="M40.3077 68.6836C40.3077 69.1617 39.92 69.5507 39.4421 69.5363C34.8628 69.3989 30.3816 68.173 26.37 65.9602C25.9514 65.7293 25.8156 65.1971 26.059 64.7856C26.3024 64.3741 26.8327 64.2391 27.2518 64.4692C30.9959 66.5251 35.1729 67.6678 39.4421 67.8041C39.92 67.8193 40.3077 68.2055 40.3077 68.6836Z" fill="black" fill-opacity="0.2"/>
<path d="M40.3077 68.6836C40.3077 69.1617 39.92 69.5507 39.4421 69.5363C34.8628 69.3989 30.3816 68.173 26.37 65.9602C25.9514 65.7293 25.8156 65.1971 26.059 64.7856C26.3024 64.3741 26.8327 64.2391 27.2518 64.4692C30.9959 66.5251 35.1729 67.6678 39.4421 67.8041C39.92 67.8193 40.3077 68.2055 40.3077 68.6836Z" stroke="#E5E7EB" stroke-width="0.69165" mask="url(#path-16-outside-6_1139_13682)"/>
<mask id="path-17-outside-7_1139_13682" maskUnits="userSpaceOnUse" x="10.5074" y="50.2834" width="17.0588" height="15.0677" fill="black">
<rect fill="white" x="10.5074" y="50.2834" width="17.0588" height="15.0677"/>
<path d="M23.855 63.3379C23.574 63.7247 23.0317 63.8115 22.6535 63.519C19.0295 60.7162 16.1247 57.0904 14.1799 52.9423C13.977 52.5094 14.1799 51.9991 14.6187 51.8092C15.0575 51.6193 15.5659 51.8218 15.7697 52.2543C17.5903 56.1183 20.2979 59.498 23.6717 62.1176C24.0493 62.4108 24.136 62.9511 23.855 63.3379Z"/>
</mask>
<path d="M23.855 63.3379C23.574 63.7247 23.0317 63.8115 22.6535 63.519C19.0295 60.7162 16.1247 57.0904 14.1799 52.9423C13.977 52.5094 14.1799 51.9991 14.6187 51.8092C15.0575 51.6193 15.5659 51.8218 15.7697 52.2543C17.5903 56.1183 20.2979 59.498 23.6717 62.1176C24.0493 62.4108 24.136 62.9511 23.855 63.3379Z" fill="black" fill-opacity="0.2"/>
<path d="M23.855 63.3379C23.574 63.7247 23.0317 63.8115 22.6535 63.519C19.0295 60.7162 16.1247 57.0904 14.1799 52.9423C13.977 52.5094 14.1799 51.9991 14.6187 51.8092C15.0575 51.6193 15.5659 51.8218 15.7697 52.2543C17.5903 56.1183 20.2979 59.498 23.6717 62.1176C24.0493 62.4108 24.136 62.9511 23.855 63.3379Z" stroke="#E5E7EB" stroke-width="0.69165" mask="url(#path-17-outside-7_1139_13682)"/>
<mask id="path-18-outside-8_1139_13682" maskUnits="userSpaceOnUse" x="7.23253" y="33.3536" width="11.6017" height="17.38" fill="black">
<rect fill="white" x="7.23253" y="33.3536" width="11.6017" height="17.38"/>
<path d="M13.6864 49.3421C13.2317 49.4898 12.7419 49.2413 12.6079 48.7823C11.3235 44.3847 11.1046 39.744 11.9695 35.245C12.0598 34.7755 12.5239 34.4819 12.9905 34.5862C13.4571 34.6905 13.7494 35.1531 13.66 35.6228C12.8617 39.819 13.0657 44.1447 14.2554 48.2471C14.3885 48.7063 14.1411 49.1943 13.6864 49.3421Z"/>
</mask>
<path d="M13.6864 49.3421C13.2317 49.4898 12.7419 49.2413 12.6079 48.7823C11.3235 44.3847 11.1046 39.744 11.9695 35.245C12.0598 34.7755 12.5239 34.4819 12.9905 34.5862C13.4571 34.6905 13.7494 35.1531 13.66 35.6228C12.8617 39.819 13.0657 44.1447 14.2554 48.2471C14.3885 48.7063 14.1411 49.1943 13.6864 49.3421Z" fill="black" fill-opacity="0.2"/>
<path d="M13.6864 49.3421C13.2317 49.4898 12.7419 49.2413 12.6079 48.7823C11.3235 44.3847 11.1046 39.744 11.9695 35.245C12.0598 34.7755 12.5239 34.4819 12.9905 34.5862C13.4571 34.6905 13.7494 35.1531 13.66 35.6228C12.8617 39.819 13.0657 44.1447 14.2554 48.2471C14.3885 48.7063 14.1411 49.1943 13.6864 49.3421Z" stroke="#E5E7EB" stroke-width="0.69165" mask="url(#path-18-outside-8_1139_13682)"/>
<mask id="path-19-outside-9_1139_13682" maskUnits="userSpaceOnUse" x="11.6472" y="17.0642" width="11.6017" height="17.38" fill="black">
<rect fill="white" x="11.6472" y="17.0642" width="11.6017" height="17.38"/>
<path d="M13.6864 32.0427C13.2316 31.8949 12.9816 31.406 13.1429 30.9559C14.6886 26.6431 17.2393 22.7601 20.5834 19.6287C20.9324 19.3019 21.4805 19.3373 21.7967 19.6959C22.1129 20.0545 22.0774 20.6006 21.729 20.9281C18.6168 23.8536 16.2392 27.4731 14.7903 31.4912C14.6281 31.941 14.1411 32.1904 13.6864 32.0427Z"/>
</mask>
<path d="M13.6864 32.0427C13.2316 31.8949 12.9816 31.406 13.1429 30.9559C14.6886 26.6431 17.2393 22.7601 20.5834 19.6287C20.9324 19.3019 21.4805 19.3373 21.7967 19.6959C22.1129 20.0545 22.0774 20.6006 21.729 20.9281C18.6168 23.8536 16.2392 27.4731 14.7903 31.4912C14.6281 31.941 14.1411 32.1904 13.6864 32.0427Z" fill="black" fill-opacity="0.2"/>
<path d="M13.6864 32.0427C13.2316 31.8949 12.9816 31.406 13.1429 30.9559C14.6886 26.6431 17.2393 22.7601 20.5834 19.6287C20.9324 19.3019 21.4805 19.3373 21.7967 19.6959C22.1129 20.0545 22.0774 20.6006 21.729 20.9281C18.6168 23.8536 16.2392 27.4731 14.7903 31.4912C14.6281 31.941 14.1411 32.1904 13.6864 32.0427Z" stroke="#E5E7EB" stroke-width="0.69165" mask="url(#path-19-outside-9_1139_13682)"/>
<mask id="path-20-outside-10_1139_13682" maskUnits="userSpaceOnUse" x="22.0648" y="7.63655" width="17.0588" height="15.0677" fill="black">
<rect fill="white" x="22.0648" y="7.63655" width="17.0588" height="15.0677"/>
<path d="M23.8547 18.0468C23.5737 17.66 23.6588 17.1174 24.0538 16.8481C27.8393 14.2676 32.1852 12.6254 36.7313 12.0577C37.2058 11.9984 37.6284 12.3492 37.6734 12.8252C37.7184 13.3012 37.3687 13.7221 36.8944 13.7822C32.6569 14.3197 28.606 15.8504 25.072 18.2496C24.6764 18.5181 24.1358 18.4336 23.8547 18.0468Z"/>
</mask>
<path d="M23.8547 18.0468C23.5737 17.66 23.6588 17.1174 24.0538 16.8481C27.8393 14.2676 32.1852 12.6254 36.7313 12.0577C37.2058 11.9984 37.6284 12.3492 37.6734 12.8252C37.7184 13.3012 37.3687 13.7221 36.8944 13.7822C32.6569 14.3197 28.606 15.8504 25.072 18.2496C24.6764 18.5181 24.1358 18.4336 23.8547 18.0468Z" fill="black" fill-opacity="0.2"/>
<path d="M23.8547 18.0468C23.5737 17.66 23.6588 17.1174 24.0538 16.8481C27.8393 14.2676 32.1852 12.6254 36.7313 12.0577C37.2058 11.9984 37.6284 12.3492 37.6734 12.8252C37.7184 13.3012 37.3687 13.7221 36.8944 13.7822C32.6569 14.3197 28.606 15.8504 25.072 18.2496C24.6764 18.5181 24.1358 18.4336 23.8547 18.0468Z" stroke="#E5E7EB" stroke-width="0.69165" mask="url(#path-20-outside-10_1139_13682)"/>
<rect x="59.3666" y="32.6626" width="15.8594" height="36.888" rx="6.34013" transform="rotate(90 59.3666 32.6626)" fill="black" fill-opacity="0.1"/>
<path d="M29 33L31.8281 33L40.3047 33L45.5 33.5001L42 35.5276L33 35.5276L28 34.0001L29 33Z" fill="#FFD028"/>
<path d="M42 33L44.8281 33L53.3047 33L57 33.5L56 35.5276L48.5 35L46.5 33.5L41 34.0001L42 33Z" fill="#FFD028"/>
<path fill-rule="evenodd" clip-rule="evenodd" d="M59.2499 36.7186C58.8203 35.2336 57.7341 33.9817 56.2786 33.2939C55.1996 32.784 55.0142 32.7617 51.5429 32.7242L48.3755 32.6899L47.7836 32.1022C46.7184 31.0444 46.5494 30.909 46.2222 30.8515C45.2582 30.682 44.45 31.573 44.8184 32.3994L44.9508 32.6966L36.0172 32.7215C26.102 32.7491 26.8698 32.707 25.5841 33.2945C24.1677 33.9418 23.0191 35.278 22.6362 36.7239C22.4306 37.5003 22.4242 43.972 22.6283 44.7132C23.1376 46.5633 24.6414 48.0055 26.652 48.5725C27.1327 48.708 27.8284 48.7208 36.0585 48.7458L44.9458 48.773L44.8121 49.0921C44.3344 50.2321 45.8785 51.1625 46.8176 50.3006C46.9753 50.1559 47.3894 49.7516 47.7379 49.4023L48.3715 48.7671L51.2349 48.7642C54.6547 48.7608 55.1173 48.705 56.3051 48.1528C57.6149 47.5438 58.5406 46.5644 59.1145 45.1806L59.3437 44.628L59.362 40.8987C59.3772 37.8093 59.358 37.092 59.2499 36.7186ZM57.5171 38.03C56.5597 38.03 56.6974 38.1266 55.5004 36.6146L54.8041 35.7351L51.9305 35.7351C49.666 35.7351 49.0663 35.7568 49.1016 35.8375C49.1262 35.8939 49.2327 36.1805 49.3382 36.4746L49.5302 37.0092L52.0766 37.4458C53.4771 37.6858 55.445 38.0262 56.4496 38.202C57.4541 38.3779 58.2902 38.5218 58.3074 38.5218C58.3245 38.5218 58.3386 38.4111 58.3386 38.2759L58.3386 38.03L57.5171 38.03ZM58.1419 39.5494C57.9424 39.5078 56.3905 39.2399 52.4373 38.5646C51.2352 38.3593 50.1481 38.1715 50.0216 38.1473L49.7916 38.1032L49.8844 38.4969C50.0042 39.0061 50.0049 42.4607 49.8852 42.9682C49.8347 43.1824 49.8044 43.3576 49.8177 43.3576C49.8312 43.3576 50.4851 43.2463 51.2709 43.1103C52.0567 42.9742 53.8995 42.659 55.3661 42.4097C56.8327 42.1605 58.1014 41.9374 58.1856 41.9139C58.3218 41.8758 58.3386 41.746 58.3386 40.7308C58.3386 39.615 58.3344 39.5895 58.1419 39.5494ZM58.1683 42.9704C58.0746 42.9933 56.0922 43.338 53.763 43.7361L49.5279 44.4602L49.3759 44.913C49.2922 45.1619 49.2049 45.4118 49.1819 45.4681C49.1489 45.5488 49.7852 45.5704 52.1875 45.5696L55.235 45.5687L55.9344 44.781C57.0641 43.5088 56.9238 43.6034 57.6787 43.6034L58.3386 43.6034L58.3386 43.266C58.3386 42.9719 58.3167 42.934 58.1683 42.9704ZM58.0005 36.4727C57.6953 35.7469 57.678 35.7351 56.9187 35.7351C56.5457 35.7351 56.2404 35.7546 56.2404 35.7787C56.2404 35.8026 56.4615 36.0977 56.7318 36.4344L57.2232 37.0465L57.6935 37.0465C58.2239 37.0465 58.2339 37.0278 58.0005 36.4727ZM57.9523 44.669C57.8842 44.669 57.7733 44.6491 57.706 44.6249C57.6308 44.5979 57.4066 44.7717 57.1246 45.0757L56.6655 45.5705L57.2003 45.5705L57.7352 45.5705L57.9038 45.2222C58.106 44.8045 58.1179 44.669 57.9523 44.669ZM52.6947 46.6418L48.5905 46.6475L48.2199 47.1745L47.8493 47.7016L51.0351 47.7016C53.0546 47.7016 54.3906 47.668 54.6843 47.6097C55.2387 47.4997 56.0819 47.1468 56.4977 46.8505L56.7989 46.636L52.6947 46.6418ZM56.0437 34.3426C55.0865 33.8247 55.031 33.8181 51.3551 33.7871C47.6218 33.7558 47.8999 33.7054 48.3241 34.3355L48.549 34.6695L52.5259 34.6695C54.7131 34.6695 56.5026 34.6518 56.5026 34.6302C56.5026 34.6086 56.2961 34.4791 56.0437 34.3426ZM48.896 39.5601C48.8028 38.6405 48.5089 37.3495 48.2227 36.6023C47.7727 35.4277 46.7471 33.768 46.4712 33.768C46.3948 33.768 45.3979 34.2499 44.2557 34.8389L42.179 35.9098L42.3865 36.4815C43.338 39.1041 43.3302 42.3165 42.3657 45.1025C42.2909 45.3183 42.2446 45.5069 42.2628 45.5217C42.3629 45.6026 46.4116 47.6196 46.4739 47.6196C46.594 47.6196 47.6221 46.1743 47.8929 45.6248C48.6911 44.0053 49.0975 41.548 48.896 39.5601ZM46.4364 32.2722C46.1119 31.917 45.8366 31.7719 45.8366 31.9559C45.8366 32.1315 46.4165 32.6943 46.6016 32.6982C46.7098 32.7006 46.7969 32.6932 46.7952 32.682C46.7936 32.6707 46.6321 32.4863 46.4364 32.2722ZM46.6068 48.7713C46.4167 48.7753 45.8366 49.3343 45.8366 49.5136C45.8366 49.6996 46.1043 49.5502 46.4401 49.1769C46.7829 48.7958 46.7945 48.7674 46.6068 48.7713ZM42.785 46.9639L41.4216 46.2672L38.5584 46.2421C36.7242 46.2262 35.6951 46.2461 35.6951 46.2976C35.6951 46.4203 36.5632 47.6225 36.6829 47.6656C36.7407 47.6864 38.4441 47.6938 40.4682 47.682L44.1485 47.6606L42.785 46.9639ZM40.1586 33.768L36.404 33.768L35.9805 34.4442L35.5571 35.1203L38.4338 35.142L41.3105 35.1635L42.6118 34.4978C43.3276 34.1316 43.9132 33.8176 43.9132 33.8C43.9132 33.7824 42.2236 33.768 40.1586 33.768ZM41.8568 38.8496C41.7406 38.1338 41.4358 37.0003 41.2119 36.4522L41.12 36.2268L37.9452 36.2268C35.6564 36.2268 34.4787 36.1927 33.7247 36.1045C33.1495 36.0373 32.6593 35.9819 32.6352 35.9815C32.6112 35.9812 32.5898 36.2114 32.5877 36.4931C32.5856 36.783 32.4832 37.3496 32.352 37.798C31.7183 39.9625 31.6854 42.0231 32.2531 44.0069C32.4368 44.6493 32.459 44.8348 32.3842 45.1106C32.3348 45.2931 32.3117 45.4585 32.3329 45.4783C32.354 45.4982 32.6962 45.4643 33.0933 45.4032C33.577 45.3287 35.0258 45.277 37.4793 45.2468L41.1432 45.2017L41.3501 44.628C41.7551 43.505 41.9098 42.5815 41.9475 41.0626C41.9721 40.07 41.9441 39.3884 41.8568 38.8496ZM34.855 47.0459C34.6389 46.7528 34.4316 46.4644 34.3942 46.405C34.3389 46.317 34.035 46.3369 32.7595 46.512C31.8978 46.6302 31.116 46.7483 31.0222 46.7742C30.8702 46.8163 29.7501 47.6098 29.7501 47.6752C29.7501 47.6898 30.9894 47.7016 32.5041 47.7016C34.0187 47.7016 35.2557 47.6739 35.2529 47.6401C35.2501 47.6062 35.071 47.3389 34.855 47.0459ZM32.0947 33.7694L29.0944 33.7709L29.5753 34.022C30.9288 34.7286 31.0089 34.7537 32.4467 34.9197C34.463 35.1525 34.274 35.1938 34.7175 34.4236L35.095 33.768L32.0947 33.7694ZM31.3408 36.1608C31.109 35.9435 27.0888 33.9319 26.8862 33.9319C26.5794 33.9319 25.5225 34.4858 25.057 34.8904C24.4469 35.4209 24.0185 36.0458 23.7825 36.7494C23.5925 37.3155 23.5866 37.4386 23.5866 40.7757C23.5866 44.1576 23.5902 44.2277 23.7882 44.7651C24.3218 46.213 25.615 47.2743 27.2686 47.6217L27.6608 47.7041L28.5525 47.135C29.6526 46.4329 31.1331 45.283 31.252 45.0384C31.3185 44.9016 31.2846 44.6488 31.1155 44.0199C30.5706 41.9943 30.6268 39.7926 31.2826 37.4695C31.5404 36.5564 31.5492 36.3562 31.3408 36.1608Z" fill="#14284B"/>
<path d="M3.03223 96.0532V96.2144C3.03223 96.4438 2.9541 96.6343 2.79785 96.7856C2.6416 96.937 2.44873 97.0127 2.21924 97.0127C1.98975 97.0127 1.79688 96.937 1.64062 96.7856C1.48926 96.6343 1.41357 96.4438 1.41357 96.2144V95.5552C1.41357 95.3306 1.4917 95.1401 1.64795 94.9839L2.87842 93.7534C3.01025 93.5825 3.20068 93.4971 3.44971 93.4971H6.16699C6.40137 93.4971 6.5918 93.5825 6.73828 93.7534L7.96143 94.9839C8.11279 95.1743 8.18848 95.3647 8.18848 95.5552V96.4561C8.18848 96.6758 8.11279 96.8613 7.96143 97.0127L3.13477 101.795C3.08594 101.844 3.06152 101.905 3.06152 101.979C3.06152 102.086 3.11035 102.176 3.20801 102.25C3.30566 102.318 3.41553 102.352 3.5376 102.352H7.39746C7.62695 102.352 7.81494 102.43 7.96143 102.586C8.11279 102.743 8.18848 102.938 8.18848 103.172C8.18848 103.407 8.11279 103.604 7.96143 103.766C7.81494 103.922 7.62695 104 7.39746 104H2.21924C1.98975 104 1.79688 103.922 1.64062 103.766C1.48926 103.604 1.41357 103.407 1.41357 103.172V101.554C1.41357 101.329 1.4917 101.148 1.64795 101.012L6.51123 96.1851C6.55029 96.1313 6.56982 96.0703 6.56982 96.002C6.56982 95.9385 6.55029 95.8799 6.51123 95.8262L5.93994 95.2549C5.87158 95.1865 5.78125 95.1523 5.66895 95.1523H3.94775C3.83545 95.1523 3.74512 95.1865 3.67676 95.2549L3.13477 95.7969C3.06641 95.8652 3.03223 95.9507 3.03223 96.0532ZM12.2027 93.7534H12.1881C12.3346 93.5825 12.525 93.4971 12.7594 93.4971H14.8468C15.0519 93.4971 15.235 93.5776 15.3961 93.7388L16.9415 95.2988C17.1026 95.46 17.1832 95.6504 17.1832 95.8701V101.627C17.1832 101.856 17.1026 102.052 16.9415 102.213L15.3961 103.758C15.235 103.919 15.0519 104 14.8468 104H12.7594C12.5348 104 12.3492 103.915 12.2027 103.744L10.6427 102.198C10.4864 102.042 10.4083 101.852 10.4083 101.627V95.8701C10.4083 95.6455 10.4864 95.4551 10.6427 95.2988L12.2027 93.7534ZM15.3375 96.0166V96.002C15.3375 95.9824 15.3277 95.9629 15.3082 95.9434L14.6051 95.2549C14.5367 95.1865 14.4513 95.1523 14.3487 95.1523H13.2574C13.1451 95.1523 13.0548 95.1865 12.9864 95.2549L12.1588 96.0825C12.0904 96.1509 12.0562 96.2412 12.0562 96.3535V99.1074C12.0562 99.1904 12.0758 99.2319 12.1148 99.2319C12.1441 99.2319 12.1783 99.2124 12.2174 99.1733L15.3082 96.0825C15.3277 96.063 15.3375 96.041 15.3375 96.0166ZM12.2979 101.554L12.9864 102.242C13.0597 102.315 13.15 102.352 13.2574 102.352H14.3487C14.4464 102.352 14.5318 102.315 14.6051 102.242L15.4474 101.422C15.506 101.349 15.5353 101.258 15.5353 101.151V98.4043C15.5353 98.3262 15.5157 98.2871 15.4767 98.2871C15.4425 98.2871 15.4059 98.3066 15.3668 98.3457L12.2979 101.422C12.2735 101.446 12.2613 101.471 12.2613 101.495C12.2613 101.51 12.2735 101.529 12.2979 101.554ZM21.0217 96.0532V96.2144C21.0217 96.4438 20.9436 96.6343 20.7873 96.7856C20.6311 96.937 20.4382 97.0127 20.2087 97.0127C19.9792 97.0127 19.7863 96.937 19.6301 96.7856C19.4787 96.6343 19.403 96.4438 19.403 96.2144V95.5552C19.403 95.3306 19.4812 95.1401 19.6374 94.9839L20.8679 93.7534C20.9997 93.5825 21.1901 93.4971 21.4392 93.4971H24.1564C24.3908 93.4971 24.5812 93.5825 24.7277 93.7534L25.9509 94.9839C26.1022 95.1743 26.1779 95.3647 26.1779 95.5552V96.4561C26.1779 96.6758 26.1022 96.8613 25.9509 97.0127L21.1242 101.795C21.0754 101.844 21.051 101.905 21.051 101.979C21.051 102.086 21.0998 102.176 21.1975 102.25C21.2951 102.318 21.405 102.352 21.5271 102.352H25.3869C25.6164 102.352 25.8044 102.43 25.9509 102.586C26.1022 102.743 26.1779 102.938 26.1779 103.172C26.1779 103.407 26.1022 103.604 25.9509 103.766C25.8044 103.922 25.6164 104 25.3869 104H20.2087C19.9792 104 19.7863 103.922 19.6301 103.766C19.4787 103.604 19.403 103.407 19.403 103.172V101.554C19.403 101.329 19.4812 101.148 19.6374 101.012L24.5007 96.1851C24.5397 96.1313 24.5593 96.0703 24.5593 96.002C24.5593 95.9385 24.5397 95.8799 24.5007 95.8262L23.9294 95.2549C23.861 95.1865 23.7707 95.1523 23.6584 95.1523H21.9372C21.8249 95.1523 21.7346 95.1865 21.6662 95.2549L21.1242 95.7969C21.0559 95.8652 21.0217 95.9507 21.0217 96.0532ZM30.1922 93.7534H30.1775C30.324 93.5825 30.5145 93.4971 30.7488 93.4971H32.8362C33.0413 93.4971 33.2244 93.5776 33.3855 93.7388L34.931 95.2988C35.0921 95.46 35.1727 95.6504 35.1727 95.8701V101.627C35.1727 101.856 35.0921 102.052 34.931 102.213L33.3855 103.758C33.2244 103.919 33.0413 104 32.8362 104H30.7488C30.5242 104 30.3387 103.915 30.1922 103.744L28.6321 102.198C28.4759 102.042 28.3978 101.852 28.3978 101.627V95.8701C28.3978 95.6455 28.4759 95.4551 28.6321 95.2988L30.1922 93.7534ZM33.327 96.0166V96.002C33.327 95.9824 33.3172 95.9629 33.2977 95.9434L32.5945 95.2549C32.5262 95.1865 32.4407 95.1523 32.3382 95.1523H31.2469C31.1346 95.1523 31.0442 95.1865 30.9759 95.2549L30.1482 96.0825C30.0799 96.1509 30.0457 96.2412 30.0457 96.3535V99.1074C30.0457 99.1904 30.0652 99.2319 30.1043 99.2319C30.1336 99.2319 30.1678 99.2124 30.2068 99.1733L33.2977 96.0825C33.3172 96.063 33.327 96.041 33.327 96.0166ZM30.2874 101.554L30.9759 102.242C31.0491 102.315 31.1395 102.352 31.2469 102.352H32.3382C32.4358 102.352 32.5213 102.315 32.5945 102.242L33.4368 101.422C33.4954 101.349 33.5247 101.258 33.5247 101.151V98.4043C33.5247 98.3262 33.5052 98.2871 33.4661 98.2871C33.4319 98.2871 33.3953 98.3066 33.3563 98.3457L30.2874 101.422C30.263 101.446 30.2508 101.471 30.2508 101.495C30.2508 101.51 30.263 101.529 30.2874 101.554ZM38.828 97.9429H42.7611C42.9906 97.9429 43.1786 98.0186 43.3251 98.1699C43.4765 98.3164 43.5521 98.5044 43.5521 98.7339C43.5521 98.9683 43.4765 99.1636 43.3251 99.3198C43.1786 99.4712 42.9906 99.5469 42.7611 99.5469H38.828C38.5985 99.5469 38.4057 99.4688 38.2494 99.3125C38.098 99.1562 38.0224 98.9634 38.0224 98.7339C38.0224 98.5044 38.098 98.3164 38.2494 98.1699C38.4057 98.0186 38.5985 97.9429 38.828 97.9429ZM48.0352 100.067V103.187C48.0352 103.417 47.9546 103.609 47.7935 103.766C47.6323 103.922 47.437 104 47.2075 104C46.978 104 46.7827 103.922 46.6216 103.766C46.4653 103.609 46.3872 103.417 46.3872 103.187V94.3247C46.3872 94.0952 46.4653 93.8999 46.6216 93.7388C46.7827 93.5776 46.978 93.4971 47.2075 93.4971H52.3711C52.6006 93.4971 52.7886 93.5776 52.9351 93.7388C53.0864 93.895 53.1621 94.0903 53.1621 94.3247C53.1621 94.5591 53.0864 94.7568 52.9351 94.918C52.7886 95.0742 52.6006 95.1523 52.3711 95.1523H48.5405C48.3989 95.1523 48.2793 95.2012 48.1816 95.2988C48.084 95.3965 48.0352 95.5161 48.0352 95.6577V97.4302C48.0352 97.5767 48.084 97.7012 48.1816 97.8037C48.2793 97.9062 48.3989 97.9575 48.5405 97.9575H51.375C51.6045 97.9575 51.7949 98.0332 51.9463 98.1846C52.0977 98.3311 52.1733 98.519 52.1733 98.7485C52.1733 98.9683 52.0977 99.1562 51.9463 99.3125C51.7949 99.4688 51.6045 99.5469 51.375 99.5469H48.5405C48.3989 99.5469 48.2793 99.5981 48.1816 99.7007C48.084 99.8032 48.0352 99.9253 48.0352 100.067ZM60.67 93.7534L61.9298 94.9839C62.0812 95.1353 62.1568 95.3257 62.1568 95.5552V101.942C62.1568 102.171 62.0812 102.362 61.9298 102.513L60.67 103.744C60.5235 103.915 60.3307 104 60.0914 104H57.4474C57.1983 104 57.0079 103.915 56.8761 103.744L55.6163 102.513C55.4601 102.357 55.3819 102.167 55.3819 101.942V95.5552C55.3819 95.3306 55.4601 95.1401 55.6163 94.9839L56.8761 93.7534C57.0079 93.5825 57.1983 93.4971 57.4474 93.4971H60.0914C60.3307 93.4971 60.5235 93.5825 60.67 93.7534ZM59.8937 102.242L60.421 101.708C60.4796 101.634 60.5089 101.549 60.5089 101.451V96.0532C60.5089 95.9556 60.4796 95.8701 60.421 95.7969L59.8937 95.2549C59.8253 95.1865 59.735 95.1523 59.6227 95.1523H57.9308C57.8185 95.1523 57.7281 95.1865 57.6598 95.2549L57.1324 95.7969C57.0641 95.8652 57.0299 95.9507 57.0299 96.0532V101.451C57.0299 101.554 57.0641 101.639 57.1324 101.708L57.6598 102.242C57.733 102.315 57.8233 102.352 57.9308 102.352H59.6227C59.7301 102.352 59.8204 102.315 59.8937 102.242ZM68.3171 99.9204H66.5153C66.3737 99.9204 66.2565 99.9692 66.1638 100.067C66.071 100.165 66.0246 100.287 66.0246 100.433V103.224C66.0246 103.453 65.944 103.646 65.7829 103.802C65.6267 103.954 65.4313 104.029 65.197 104.029C64.9675 104.029 64.7722 103.954 64.611 103.802C64.4548 103.646 64.3767 103.453 64.3767 103.224V94.3247C64.3767 94.0952 64.4548 93.8999 64.611 93.7388C64.7722 93.5776 64.9675 93.4971 65.197 93.4971H68.8151C69.0251 93.4971 69.2155 93.5825 69.3864 93.7534L70.9245 95.2988C71.0759 95.4502 71.1516 95.6406 71.1516 95.8701V97.5474C71.1516 97.7671 71.071 97.9575 70.9099 98.1187L70.3166 98.7192C70.2141 98.8218 70.1628 98.9414 70.1628 99.0781C70.1628 99.2295 70.2189 99.3613 70.3312 99.4736L70.9245 100.052C71.0759 100.204 71.1516 100.394 71.1516 100.624V103.224C71.1516 103.453 71.0734 103.646 70.9172 103.802C70.7658 103.954 70.5754 104.029 70.3459 104.029C70.1115 104.029 69.9113 103.954 69.7453 103.802C69.5842 103.646 69.5036 103.453 69.5036 103.224V101.122C69.5036 101.009 69.4743 100.924 69.4157 100.865L68.5734 100.023C68.5051 99.9546 68.4196 99.9204 68.3171 99.9204ZM68.5734 98.1626L69.4157 97.3423C69.4743 97.2837 69.5036 97.1934 69.5036 97.0713V96.3535C69.5036 96.2314 69.4743 96.1411 69.4157 96.0825L68.5734 95.2549C68.5051 95.1865 68.4196 95.1523 68.3171 95.1523H66.5153C66.3737 95.1523 66.2565 95.2012 66.1638 95.2988C66.071 95.3965 66.0246 95.5161 66.0246 95.6577V97.7598C66.0246 97.9062 66.071 98.0283 66.1638 98.126C66.2565 98.2236 66.3737 98.2725 66.5153 98.2725H68.3171C68.4147 98.2725 68.5002 98.2358 68.5734 98.1626ZM78.3592 93.7388L79.9046 95.2988C80.0657 95.46 80.1463 95.6504 80.1463 95.8701V101.627C80.1463 101.847 80.0657 102.037 79.9046 102.198L78.3592 103.758C78.198 103.919 78.0149 104 77.8099 104H74.1917C73.9622 104 73.7669 103.919 73.6058 103.758C73.4495 103.597 73.3714 103.402 73.3714 103.172V94.3247C73.3714 94.0952 73.4495 93.8999 73.6058 93.7388C73.7669 93.5776 73.9622 93.4971 74.1917 93.4971H77.8099C78.0149 93.4971 78.198 93.5776 78.3592 93.7388ZM77.5682 102.242L78.4104 101.422C78.469 101.349 78.4983 101.258 78.4983 101.151V96.3535C78.4983 96.2461 78.469 96.1558 78.4104 96.0825L77.5682 95.2549C77.4998 95.1865 77.4144 95.1523 77.3118 95.1523H75.5101C75.3685 95.1523 75.2513 95.2012 75.1585 95.2988C75.0657 95.3965 75.0193 95.5161 75.0193 95.6577V101.839C75.0193 101.986 75.0657 102.108 75.1585 102.206C75.2513 102.303 75.3685 102.352 75.5101 102.352H77.3118C77.4095 102.352 77.4949 102.315 77.5682 102.242ZM83.8017 97.9429H87.7348C87.9643 97.9429 88.1522 98.0186 88.2987 98.1699C88.4501 98.3164 88.5258 98.5044 88.5258 98.7339C88.5258 98.9683 88.4501 99.1636 88.2987 99.3198C88.1522 99.4712 87.9643 99.5469 87.7348 99.5469H83.8017C83.5722 99.5469 83.3793 99.4688 83.223 99.3125C83.0717 99.1562 82.996 98.9634 82.996 98.7339C82.996 98.5044 83.0717 98.3164 83.223 98.1699C83.3793 98.0186 83.5722 97.9429 83.8017 97.9429ZM95.5723 95.6577V103.224C95.5723 103.453 95.4941 103.646 95.3379 103.802C95.1816 103.954 94.9839 104.029 94.7446 104.029C94.5151 104.029 94.3198 103.954 94.1587 103.802C94.0024 103.646 93.9243 103.453 93.9243 103.224V95.6577C93.9243 95.5161 93.873 95.3965 93.7705 95.2988C93.6729 95.2012 93.5532 95.1523 93.4116 95.1523H92.1519C91.9224 95.1523 91.7295 95.0718 91.5732 94.9106C91.417 94.7495 91.3389 94.5542 91.3389 94.3247C91.3389 94.0952 91.417 93.8999 91.5732 93.7388C91.7295 93.5776 91.9224 93.4971 92.1519 93.4971H97.3594C97.5889 93.4971 97.7769 93.5776 97.9233 93.7388C98.0747 93.895 98.1504 94.0903 98.1504 94.3247C98.1504 94.5591 98.0747 94.7568 97.9233 94.918C97.7769 95.0742 97.5889 95.1523 97.3594 95.1523H96.085C95.9434 95.1523 95.8213 95.2012 95.7188 95.2988C95.6211 95.3965 95.5723 95.5161 95.5723 95.6577ZM104.296 99.9204H102.494C102.353 99.9204 102.235 99.9692 102.143 100.067C102.05 100.165 102.004 100.287 102.004 100.433V103.224C102.004 103.453 101.923 103.646 101.762 103.802C101.606 103.954 101.41 104.029 101.176 104.029C100.946 104.029 100.751 103.954 100.59 103.802C100.434 103.646 100.356 103.453 100.356 103.224V94.3247C100.356 94.0952 100.434 93.8999 100.59 93.7388C100.751 93.5776 100.946 93.4971 101.176 93.4971H104.794C105.004 93.4971 105.194 93.5825 105.365 93.7534L106.903 95.2988C107.055 95.4502 107.13 95.6406 107.13 95.8701V97.5474C107.13 97.7671 107.05 97.9575 106.889 98.1187L106.296 98.7192C106.193 98.8218 106.142 98.9414 106.142 99.0781C106.142 99.2295 106.198 99.3613 106.31 99.4736L106.903 100.052C107.055 100.204 107.13 100.394 107.13 100.624V103.224C107.13 103.453 107.052 103.646 106.896 103.802C106.745 103.954 106.554 104.029 106.325 104.029C106.09 104.029 105.89 103.954 105.724 103.802C105.563 103.646 105.483 103.453 105.483 103.224V101.122C105.483 101.009 105.453 100.924 105.395 100.865L104.552 100.023C104.484 99.9546 104.399 99.9204 104.296 99.9204ZM104.552 98.1626L105.395 97.3423C105.453 97.2837 105.483 97.1934 105.483 97.0713V96.3535C105.483 96.2314 105.453 96.1411 105.395 96.0825L104.552 95.2549C104.484 95.1865 104.399 95.1523 104.296 95.1523H102.494C102.353 95.1523 102.235 95.2012 102.143 95.2988C102.05 95.3965 102.004 95.5161 102.004 95.6577V97.7598C102.004 97.9062 102.05 98.0283 102.143 98.126C102.235 98.2236 102.353 98.2725 102.494 98.2725H104.296C104.394 98.2725 104.479 98.2358 104.552 98.1626ZM116.125 95.8701V103.187C116.125 103.417 116.047 103.609 115.891 103.766C115.739 103.922 115.549 104 115.32 104C115.085 104 114.885 103.922 114.719 103.766C114.558 103.609 114.477 103.417 114.477 103.187V100.418C114.477 100.277 114.428 100.157 114.331 100.06C114.238 99.957 114.121 99.9058 113.979 99.9058H111.489C111.347 99.9058 111.23 99.9546 111.137 100.052C111.045 100.15 110.998 100.272 110.998 100.418V103.187C110.998 103.417 110.918 103.609 110.757 103.766C110.595 103.922 110.4 104 110.171 104C109.941 104 109.746 103.922 109.585 103.766C109.428 103.609 109.35 103.417 109.35 103.187V95.8701C109.35 95.6455 109.428 95.4551 109.585 95.2988L111.145 93.7534C111.291 93.5825 111.477 93.4971 111.701 93.4971H113.789C113.994 93.4971 114.177 93.5776 114.338 93.7388L115.883 95.2988C116.045 95.46 116.125 95.6504 116.125 95.8701ZM114.477 97.7451V96.3315C114.477 96.2241 114.448 96.1411 114.389 96.0825L113.547 95.2549C113.479 95.1865 113.393 95.1523 113.291 95.1523H112.199C112.087 95.1523 111.997 95.1865 111.928 95.2549L111.101 96.0825C111.032 96.1509 110.998 96.2339 110.998 96.3315V97.7451C110.998 97.8916 111.045 98.0137 111.137 98.1113C111.23 98.209 111.347 98.2578 111.489 98.2578H113.979C114.121 98.2578 114.238 98.209 114.331 98.1113C114.428 98.0088 114.477 97.8867 114.477 97.7451ZM119.905 93.9072L123.369 99.9644C123.404 100.013 123.428 100.038 123.443 100.038C123.462 100.038 123.472 100.003 123.472 99.9351V94.3101C123.472 94.0806 123.553 93.8877 123.714 93.7314C123.88 93.5752 124.08 93.4971 124.314 93.4971C124.544 93.4971 124.734 93.5752 124.886 93.7314C125.042 93.8877 125.12 94.0806 125.12 94.3101V103.187C125.12 103.417 125.042 103.609 124.886 103.766C124.734 103.922 124.544 104 124.314 104C124.007 104 123.76 103.866 123.575 103.597L120.096 97.4888C120.081 97.4399 120.056 97.4155 120.022 97.4155C120.003 97.4155 119.993 97.4497 119.993 97.5181V103.187C119.993 103.417 119.912 103.609 119.751 103.766C119.59 103.922 119.395 104 119.165 104C118.936 104 118.741 103.922 118.579 103.766C118.423 103.609 118.345 103.417 118.345 103.187V94.3101C118.345 94.0806 118.423 93.8877 118.579 93.7314C118.741 93.5752 118.936 93.4971 119.165 93.4971C119.317 93.4971 119.461 93.5361 119.597 93.6143C119.739 93.6875 119.842 93.7852 119.905 93.9072ZM132.467 96.2144V96.0386C132.467 95.936 132.437 95.8555 132.379 95.7969L131.837 95.2549C131.768 95.1865 131.688 95.1523 131.595 95.1523H129.874C129.781 95.1523 129.701 95.1865 129.632 95.2549L129.09 95.7969C129.022 95.8652 128.988 95.9458 128.988 96.0386V97.042C128.988 97.1445 129.022 97.23 129.09 97.2983L129.632 97.8477C129.72 97.9209 129.801 97.9575 129.874 97.9575H132.064C132.293 97.9575 132.481 98.0308 132.628 98.1772L133.888 99.4736C134.039 99.625 134.115 99.8081 134.115 100.023V101.957C134.115 102.176 134.039 102.362 133.888 102.513L132.628 103.744C132.481 103.915 132.293 104 132.064 104H129.405C129.156 104 128.966 103.915 128.834 103.744L127.574 102.513C127.418 102.357 127.34 102.171 127.34 101.957V101.297C127.34 101.083 127.418 100.904 127.574 100.763C127.73 100.621 127.926 100.55 128.16 100.55C128.394 100.55 128.59 100.621 128.746 100.763C128.907 100.904 128.988 101.083 128.988 101.297V101.466C128.988 101.568 129.022 101.654 129.09 101.722L129.632 102.242C129.705 102.315 129.786 102.352 129.874 102.352H131.595C131.683 102.352 131.764 102.315 131.837 102.242L132.379 101.722C132.437 101.664 132.467 101.578 132.467 101.466V100.521C132.467 100.414 132.437 100.323 132.379 100.25L131.837 99.708C131.754 99.6396 131.673 99.6055 131.595 99.6055H129.405C129.161 99.6055 128.971 99.5298 128.834 99.3784L127.574 98.0894C127.418 97.9185 127.34 97.728 127.34 97.5181V95.5552C127.34 95.3306 127.418 95.1401 127.574 94.9839L128.834 93.7534C128.966 93.5825 129.156 93.4971 129.405 93.4971H132.064C132.293 93.4971 132.481 93.5825 132.628 93.7534L133.888 94.9839C134.039 95.1353 134.115 95.3257 134.115 95.5552V96.2144C134.115 96.4438 134.037 96.6343 133.88 96.7856C133.729 96.937 133.538 97.0127 133.309 97.0127C133.075 97.0127 132.874 96.937 132.708 96.7856C132.547 96.6343 132.467 96.4438 132.467 96.2144ZM141.674 104H137.785C137.555 104 137.362 103.922 137.206 103.766C137.055 103.609 136.979 103.417 136.979 103.187C136.979 102.958 137.055 102.767 137.206 102.616C137.362 102.459 137.555 102.381 137.785 102.381H138.385C138.527 102.381 138.646 102.333 138.744 102.235C138.847 102.132 138.898 102.01 138.898 101.869V95.6284C138.898 95.4868 138.847 95.3672 138.744 95.2695C138.646 95.1719 138.527 95.123 138.385 95.123H137.785C137.555 95.123 137.362 95.0449 137.206 94.8887C137.055 94.7324 136.979 94.5396 136.979 94.3101C136.979 94.0806 137.055 93.8877 137.206 93.7314C137.362 93.5752 137.555 93.4971 137.785 93.4971H141.674C141.903 93.4971 142.091 93.5752 142.238 93.7314C142.389 93.8828 142.465 94.0757 142.465 94.3101C142.465 94.5444 142.389 94.7397 142.238 94.896C142.091 95.0474 141.903 95.123 141.674 95.123H141.059C140.917 95.123 140.795 95.1719 140.692 95.2695C140.595 95.3672 140.546 95.4868 140.546 95.6284V101.869C140.546 102.01 140.595 102.132 140.692 102.235C140.795 102.333 140.917 102.381 141.059 102.381H141.674C141.903 102.381 142.091 102.459 142.238 102.616C142.389 102.767 142.465 102.958 142.465 103.187C142.465 103.421 142.389 103.617 142.238 103.773C142.091 103.924 141.903 104 141.674 104ZM149.541 95.6577V103.224C149.541 103.453 149.462 103.646 149.306 103.802C149.15 103.954 148.952 104.029 148.713 104.029C148.483 104.029 148.288 103.954 148.127 103.802C147.971 103.646 147.893 103.453 147.893 103.224V95.6577C147.893 95.5161 147.841 95.3965 147.739 95.2988C147.641 95.2012 147.522 95.1523 147.38 95.1523H146.12C145.891 95.1523 145.698 95.0718 145.542 94.9106C145.385 94.7495 145.307 94.5542 145.307 94.3247C145.307 94.0952 145.385 93.8999 145.542 93.7388C145.698 93.5776 145.891 93.4971 146.12 93.4971H151.328C151.557 93.4971 151.745 93.5776 151.892 93.7388C152.043 93.895 152.119 94.0903 152.119 94.3247C152.119 94.5591 152.043 94.7568 151.892 94.918C151.745 95.0742 151.557 95.1523 151.328 95.1523H150.053C149.912 95.1523 149.79 95.2012 149.687 95.2988C149.589 95.3965 149.541 95.5161 149.541 95.6577ZM170.094 95.8701V103.187C170.094 103.417 170.015 103.609 169.859 103.766C169.708 103.922 169.517 104 169.288 104C169.054 104 168.853 103.922 168.687 103.766C168.526 103.609 168.446 103.417 168.446 103.187V100.418C168.446 100.277 168.397 100.157 168.299 100.06C168.206 99.957 168.089 99.9058 167.948 99.9058H165.457C165.316 99.9058 165.199 99.9546 165.106 100.052C165.013 100.15 164.967 100.272 164.967 100.418V103.187C164.967 103.417 164.886 103.609 164.725 103.766C164.564 103.922 164.368 104 164.139 104C163.909 104 163.714 103.922 163.553 103.766C163.397 103.609 163.319 103.417 163.319 103.187V95.8701C163.319 95.6455 163.397 95.4551 163.553 95.2988L165.113 93.7534C165.26 93.5825 165.445 93.4971 165.67 93.4971H167.757C167.962 93.4971 168.145 93.5776 168.306 93.7388L169.852 95.2988C170.013 95.46 170.094 95.6504 170.094 95.8701ZM168.446 97.7451V96.3315C168.446 96.2241 168.416 96.1411 168.358 96.0825L167.515 95.2549C167.447 95.1865 167.362 95.1523 167.259 95.1523H166.168C166.055 95.1523 165.965 95.1865 165.897 95.2549L165.069 96.0825C165.001 96.1509 164.967 96.2339 164.967 96.3315V97.7451C164.967 97.8916 165.013 98.0137 165.106 98.1113C165.199 98.209 165.316 98.2578 165.457 98.2578H167.948C168.089 98.2578 168.206 98.209 168.299 98.1113C168.397 98.0088 168.446 97.8867 168.446 97.7451ZM177.44 96.2144V96.0386C177.44 95.936 177.411 95.8555 177.352 95.7969L176.81 95.2549C176.742 95.1865 176.662 95.1523 176.569 95.1523H174.848C174.755 95.1523 174.674 95.1865 174.606 95.2549L174.064 95.7969C173.996 95.8652 173.961 95.9458 173.961 96.0386V97.042C173.961 97.1445 173.996 97.23 174.064 97.2983L174.606 97.8477C174.694 97.9209 174.774 97.9575 174.848 97.9575H177.038C177.267 97.9575 177.455 98.0308 177.601 98.1772L178.861 99.4736C179.013 99.625 179.088 99.8081 179.088 100.023V101.957C179.088 102.176 179.013 102.362 178.861 102.513L177.601 103.744C177.455 103.915 177.267 104 177.038 104H174.379C174.13 104 173.939 103.915 173.808 103.744L172.548 102.513C172.392 102.357 172.313 102.171 172.313 101.957V101.297C172.313 101.083 172.392 100.904 172.548 100.763C172.704 100.621 172.899 100.55 173.134 100.55C173.368 100.55 173.563 100.621 173.72 100.763C173.881 100.904 173.961 101.083 173.961 101.297V101.466C173.961 101.568 173.996 101.654 174.064 101.722L174.606 102.242C174.679 102.315 174.76 102.352 174.848 102.352H176.569C176.657 102.352 176.737 102.315 176.81 102.242L177.352 101.722C177.411 101.664 177.44 101.578 177.44 101.466V100.521C177.44 100.414 177.411 100.323 177.352 100.25L176.81 99.708C176.727 99.6396 176.647 99.6055 176.569 99.6055H174.379C174.135 99.6055 173.944 99.5298 173.808 99.3784L172.548 98.0894C172.392 97.9185 172.313 97.728 172.313 97.5181V95.5552C172.313 95.3306 172.392 95.1401 172.548 94.9839L173.808 93.7534C173.939 93.5825 174.13 93.4971 174.379 93.4971H177.038C177.267 93.4971 177.455 93.5825 177.601 93.7534L178.861 94.9839C179.013 95.1353 179.088 95.3257 179.088 95.5552V96.2144C179.088 96.4438 179.01 96.6343 178.854 96.7856C178.703 96.937 178.512 97.0127 178.283 97.0127C178.048 97.0127 177.848 96.937 177.682 96.7856C177.521 96.6343 177.44 96.4438 177.44 96.2144ZM186.105 92.0469H185.82C185.59 92.0469 185.397 91.9712 185.241 91.8198C185.085 91.6685 185.007 91.478 185.007 91.2485V90.9482C185.007 90.7188 185.083 90.5308 185.234 90.3843C185.39 90.2329 185.585 90.1572 185.82 90.1572H186.105C186.335 90.1572 186.525 90.2329 186.677 90.3843C186.833 90.5308 186.911 90.7188 186.911 90.9482V91.2485C186.911 91.478 186.833 91.6685 186.677 91.8198C186.525 91.9712 186.335 92.0469 186.105 92.0469ZM183.557 92.0469H183.271C183.042 92.0469 182.849 91.9712 182.692 91.8198C182.536 91.6685 182.458 91.478 182.458 91.2485V90.9482C182.458 90.7188 182.534 90.5308 182.685 90.3843C182.841 90.2329 183.037 90.1572 183.271 90.1572H183.557C183.786 90.1572 183.977 90.2329 184.128 90.3843C184.284 90.5308 184.362 90.7188 184.362 90.9482V91.2485C184.362 91.478 184.284 91.6685 184.128 91.8198C183.977 91.9712 183.786 92.0469 183.557 92.0469ZM182.956 94.2808V101.451C182.956 101.554 182.99 101.639 183.059 101.708L183.586 102.242C183.659 102.315 183.75 102.352 183.857 102.352H185.549C185.656 102.352 185.747 102.315 185.82 102.242L186.347 101.708C186.406 101.649 186.435 101.563 186.435 101.451V94.2808C186.435 94.0513 186.516 93.8584 186.677 93.7021C186.843 93.5459 187.043 93.4678 187.277 93.4678C187.507 93.4678 187.697 93.5459 187.849 93.7021C188.005 93.8584 188.083 94.0513 188.083 94.2808V101.942C188.083 102.171 188.007 102.362 187.856 102.513L186.596 103.744C186.45 103.915 186.257 104 186.018 104H183.374C183.125 104 182.934 103.915 182.802 103.744L181.542 102.513C181.386 102.357 181.308 102.167 181.308 101.942V94.2808C181.308 94.0513 181.386 93.8584 181.542 93.7021C181.704 93.5459 181.899 93.4678 182.128 93.4678C182.358 93.4678 182.553 93.5459 182.714 93.7021C182.875 93.8584 182.956 94.0513 182.956 94.2808ZM191.863 93.9072L195.327 99.9644C195.361 100.013 195.386 100.038 195.4 100.038C195.42 100.038 195.43 100.003 195.43 99.9351V94.3101C195.43 94.0806 195.51 93.8877 195.671 93.7314C195.837 93.5752 196.038 93.4971 196.272 93.4971C196.502 93.4971 196.692 93.5752 196.843 93.7314C197 93.8877 197.078 94.0806 197.078 94.3101V103.187C197.078 103.417 197 103.609 196.843 103.766C196.692 103.922 196.502 104 196.272 104C195.964 104 195.718 103.866 195.532 103.597L192.053 97.4888C192.039 97.4399 192.014 97.4155 191.98 97.4155C191.961 97.4155 191.951 97.4497 191.951 97.5181V103.187C191.951 103.417 191.87 103.609 191.709 103.766C191.548 103.922 191.353 104 191.123 104C190.894 104 190.698 103.922 190.537 103.766C190.381 103.609 190.303 103.417 190.303 103.187V94.3101C190.303 94.0806 190.381 93.8877 190.537 93.7314C190.698 93.5752 190.894 93.4971 191.123 93.4971C191.275 93.4971 191.419 93.5361 191.555 93.6143C191.697 93.6875 191.799 93.7852 191.863 93.9072ZM206.072 95.8701V103.187C206.072 103.417 205.994 103.609 205.838 103.766C205.687 103.922 205.496 104 205.267 104C205.032 104 204.832 103.922 204.666 103.766C204.505 103.609 204.425 103.417 204.425 103.187V100.418C204.425 100.277 204.376 100.157 204.278 100.06C204.185 99.957 204.068 99.9058 203.926 99.9058H201.436C201.295 99.9058 201.177 99.9546 201.085 100.052C200.992 100.15 200.946 100.272 200.946 100.418V103.187C200.946 103.417 200.865 103.609 200.704 103.766C200.543 103.922 200.347 104 200.118 104C199.888 104 199.693 103.922 199.532 103.766C199.376 103.609 199.298 103.417 199.298 103.187V95.8701C199.298 95.6455 199.376 95.4551 199.532 95.2988L201.092 93.7534C201.238 93.5825 201.424 93.4971 201.649 93.4971H203.736C203.941 93.4971 204.124 93.5776 204.285 93.7388L205.831 95.2988C205.992 95.46 206.072 95.6504 206.072 95.8701ZM204.425 97.7451V96.3315C204.425 96.2241 204.395 96.1411 204.337 96.0825L203.494 95.2549C203.426 95.1865 203.341 95.1523 203.238 95.1523H202.147C202.034 95.1523 201.944 95.1865 201.876 95.2549L201.048 96.0825C200.98 96.1509 200.946 96.2339 200.946 96.3315V97.7451C200.946 97.8916 200.992 98.0137 201.085 98.1113C201.177 98.209 201.295 98.2578 201.436 98.2578H203.926C204.068 98.2578 204.185 98.209 204.278 98.1113C204.376 98.0088 204.425 97.8867 204.425 97.7451Z" fill="#06070E" fill-opacity="0.88"/>
<path d="M3.06152 115.354V120.151C3.06152 120.263 3.0957 120.354 3.16406 120.422L4.00635 121.242C4.07959 121.315 4.16992 121.352 4.27734 121.352H5.36865C5.46631 121.352 5.55176 121.315 5.625 121.242L6.48193 120.422C6.54053 120.378 6.56982 120.288 6.56982 120.151V119.711C6.56982 119.482 6.64795 119.292 6.8042 119.14C6.96533 118.984 7.16309 118.906 7.39746 118.906C7.62695 118.906 7.81494 118.984 7.96143 119.14C8.11279 119.292 8.18848 119.482 8.18848 119.711V120.627C8.18848 120.847 8.10791 121.037 7.94678 121.198L6.43799 122.758C6.27686 122.919 6.08643 123 5.8667 123H3.7793C3.55957 123 3.36426 122.915 3.19336 122.744L1.64795 121.198C1.4917 121.042 1.41357 120.852 1.41357 120.627V114.87C1.41357 114.646 1.4917 114.455 1.64795 114.299L3.19336 112.753C3.36426 112.583 3.55957 112.497 3.7793 112.497H5.8667C6.08643 112.497 6.27686 112.578 6.43799 112.739L7.94678 114.299C8.10791 114.46 8.18848 114.65 8.18848 114.87V115.786C8.18848 116.02 8.11279 116.215 7.96143 116.372C7.81494 116.523 7.62695 116.599 7.39746 116.599C7.16797 116.599 6.97266 116.521 6.81152 116.364C6.65039 116.208 6.56982 116.015 6.56982 115.786V115.354C6.56982 115.217 6.54053 115.126 6.48193 115.083L5.625 114.255C5.55664 114.187 5.47119 114.152 5.36865 114.152H4.27734C4.16504 114.152 4.07471 114.187 4.00635 114.255L3.16406 115.083C3.0957 115.151 3.06152 115.241 3.06152 115.354ZM17.1832 114.87V122.187C17.1832 122.417 17.1051 122.609 16.9488 122.766C16.7975 122.922 16.607 123 16.3775 123C16.1432 123 15.943 122.922 15.777 122.766C15.6158 122.609 15.5353 122.417 15.5353 122.187V119.418C15.5353 119.277 15.4864 119.157 15.3888 119.06C15.296 118.957 15.1788 118.906 15.0372 118.906H12.547C12.4054 118.906 12.2882 118.955 12.1954 119.052C12.1026 119.15 12.0562 119.272 12.0562 119.418V122.187C12.0562 122.417 11.9757 122.609 11.8146 122.766C11.6534 122.922 11.4581 123 11.2286 123C10.9991 123 10.8038 122.922 10.6427 122.766C10.4864 122.609 10.4083 122.417 10.4083 122.187V114.87C10.4083 114.646 10.4864 114.455 10.6427 114.299L12.2027 112.753C12.3492 112.583 12.5348 112.497 12.7594 112.497H14.8468C15.0519 112.497 15.235 112.578 15.3961 112.739L16.9415 114.299C17.1026 114.46 17.1832 114.65 17.1832 114.87ZM15.5353 116.745V115.332C15.5353 115.224 15.506 115.141 15.4474 115.083L14.6051 114.255C14.5367 114.187 14.4513 114.152 14.3487 114.152H13.2574C13.1451 114.152 13.0548 114.187 12.9864 114.255L12.1588 115.083C12.0904 115.151 12.0562 115.234 12.0562 115.332V116.745C12.0562 116.892 12.1026 117.014 12.1954 117.111C12.2882 117.209 12.4054 117.258 12.547 117.258H15.0372C15.1788 117.258 15.296 117.209 15.3888 117.111C15.4864 117.009 15.5353 116.887 15.5353 116.745ZM23.3435 118.92H21.5417C21.4001 118.92 21.2829 118.969 21.1901 119.067C21.0974 119.165 21.051 119.287 21.051 119.433V122.224C21.051 122.453 20.9704 122.646 20.8093 122.802C20.653 122.954 20.4577 123.029 20.2233 123.029C19.9938 123.029 19.7985 122.954 19.6374 122.802C19.4812 122.646 19.403 122.453 19.403 122.224V113.325C19.403 113.095 19.4812 112.9 19.6374 112.739C19.7985 112.578 19.9938 112.497 20.2233 112.497H23.8415C24.0515 112.497 24.2419 112.583 24.4128 112.753L25.9509 114.299C26.1022 114.45 26.1779 114.641 26.1779 114.87V116.547C26.1779 116.767 26.0974 116.958 25.9362 117.119L25.343 117.719C25.2404 117.822 25.1892 117.941 25.1892 118.078C25.1892 118.229 25.2453 118.361 25.3576 118.474L25.9509 119.052C26.1022 119.204 26.1779 119.394 26.1779 119.624V122.224C26.1779 122.453 26.0998 122.646 25.9436 122.802C25.7922 122.954 25.6018 123.029 25.3723 123.029C25.1379 123.029 24.9377 122.954 24.7717 122.802C24.6105 122.646 24.53 122.453 24.53 122.224V120.122C24.53 120.009 24.5007 119.924 24.4421 119.865L23.5998 119.023C23.5314 118.955 23.446 118.92 23.3435 118.92ZM23.5998 117.163L24.4421 116.342C24.5007 116.284 24.53 116.193 24.53 116.071V115.354C24.53 115.231 24.5007 115.141 24.4421 115.083L23.5998 114.255C23.5314 114.187 23.446 114.152 23.3435 114.152H21.5417C21.4001 114.152 21.2829 114.201 21.1901 114.299C21.0974 114.396 21.051 114.516 21.051 114.658V116.76C21.051 116.906 21.0974 117.028 21.1901 117.126C21.2829 117.224 21.4001 117.272 21.5417 117.272H23.3435C23.4411 117.272 23.5266 117.236 23.5998 117.163ZM33.5247 115.214V115.039C33.5247 114.951 33.4954 114.87 33.4368 114.797L32.9095 114.255C32.8411 114.187 32.7508 114.152 32.6385 114.152H30.9466C30.8343 114.152 30.7439 114.187 30.6756 114.255L30.1482 114.797C30.0799 114.865 30.0457 114.946 30.0457 115.039V120.466C30.0457 120.559 30.0799 120.639 30.1482 120.708L30.6756 121.242C30.7488 121.315 30.8392 121.352 30.9466 121.352H32.6385C32.7459 121.352 32.8362 121.315 32.9095 121.242L33.4368 120.708C33.4954 120.634 33.5247 120.554 33.5247 120.466V119.067C33.5247 118.925 33.4759 118.806 33.3782 118.708C33.2854 118.61 33.1683 118.562 33.0267 118.562H32.1771C31.9573 118.562 31.7669 118.483 31.6058 118.327C31.4446 118.171 31.3641 117.978 31.3641 117.749C31.3641 117.524 31.4446 117.336 31.6058 117.185C31.7669 117.033 31.9573 116.958 32.1771 116.958H34.367C34.5965 116.958 34.7869 117.033 34.9383 117.185C35.0945 117.331 35.1727 117.519 35.1727 117.749V120.927C35.1727 121.142 35.097 121.337 34.9456 121.513L33.6858 122.744C33.5394 122.915 33.3465 123 33.1072 123H30.4632C30.2142 123 30.0237 122.915 29.8919 122.744L28.6321 121.513C28.4759 121.357 28.3978 121.162 28.3978 120.927V114.555C28.3978 114.331 28.4759 114.14 28.6321 113.984L29.8919 112.753C30.0237 112.583 30.2142 112.497 30.4632 112.497H33.1072C33.3465 112.497 33.5394 112.583 33.6858 112.753L34.9456 113.984C35.097 114.135 35.1727 114.326 35.1727 114.555V115.214C35.1727 115.444 35.0945 115.634 34.9383 115.786C34.7869 115.937 34.5965 116.013 34.367 116.013C34.1326 116.013 33.9324 115.937 33.7664 115.786C33.6053 115.634 33.5247 115.444 33.5247 115.214ZM42.6806 112.753L43.9403 113.984C44.0917 114.135 44.1674 114.326 44.1674 114.555V120.942C44.1674 121.171 44.0917 121.362 43.9403 121.513L42.6806 122.744C42.5341 122.915 42.3412 123 42.102 123H39.4579C39.2089 123 39.0185 122.915 38.8866 122.744L37.6269 121.513C37.4706 121.357 37.3925 121.167 37.3925 120.942V114.555C37.3925 114.331 37.4706 114.14 37.6269 113.984L38.8866 112.753C39.0185 112.583 39.2089 112.497 39.4579 112.497H42.102C42.3412 112.497 42.5341 112.583 42.6806 112.753ZM41.9042 121.242L42.4315 120.708C42.4901 120.634 42.5194 120.549 42.5194 120.451V115.053C42.5194 114.956 42.4901 114.87 42.4315 114.797L41.9042 114.255C41.8358 114.187 41.7455 114.152 41.6332 114.152H39.9413C39.829 114.152 39.7387 114.187 39.6703 114.255L39.143 114.797C39.0746 114.865 39.0404 114.951 39.0404 115.053V120.451C39.0404 120.554 39.0746 120.639 39.143 120.708L39.6703 121.242C39.7436 121.315 39.8339 121.352 39.9413 121.352H41.6332C41.7406 121.352 41.831 121.315 41.9042 121.242ZM60.5089 119.382V113.31C60.5089 113.081 60.5895 112.888 60.7506 112.731C60.9166 112.575 61.1168 112.497 61.3512 112.497C61.5807 112.497 61.7711 112.575 61.9225 112.731C62.0787 112.888 62.1568 113.081 62.1568 113.31V119.88C62.1568 120.129 62.0763 120.324 61.9151 120.466L59.5934 122.758C59.4322 122.919 59.2467 123 59.0367 123H58.4947C58.2896 123 58.1065 122.919 57.9454 122.758L55.631 120.466C55.4649 120.3 55.3819 120.104 55.3819 119.88V113.31C55.3819 113.081 55.4601 112.888 55.6163 112.731C55.7774 112.575 55.9728 112.497 56.2022 112.497C56.4317 112.497 56.6271 112.575 56.7882 112.731C56.9493 112.888 57.0299 113.081 57.0299 113.31V119.382C57.0299 119.484 57.0641 119.57 57.1324 119.638L58.4068 120.957C58.4996 121.049 58.6241 121.096 58.7804 121.096C58.9171 121.096 59.0392 121.049 59.1466 120.957L60.421 119.638C60.4796 119.58 60.5089 119.494 60.5089 119.382ZM71.1516 114.87V122.187C71.1516 122.417 71.0734 122.609 70.9172 122.766C70.7658 122.922 70.5754 123 70.3459 123C70.1115 123 69.9113 122.922 69.7453 122.766C69.5842 122.609 69.5036 122.417 69.5036 122.187V119.418C69.5036 119.277 69.4548 119.157 69.3571 119.06C69.2644 118.957 69.1472 118.906 69.0056 118.906H66.5153C66.3737 118.906 66.2565 118.955 66.1638 119.052C66.071 119.15 66.0246 119.272 66.0246 119.418V122.187C66.0246 122.417 65.944 122.609 65.7829 122.766C65.6218 122.922 65.4265 123 65.197 123C64.9675 123 64.7722 122.922 64.611 122.766C64.4548 122.609 64.3767 122.417 64.3767 122.187V114.87C64.3767 114.646 64.4548 114.455 64.611 114.299L66.1711 112.753C66.3176 112.583 66.5031 112.497 66.7277 112.497H68.8151C69.0202 112.497 69.2033 112.578 69.3645 112.739L70.9099 114.299C71.071 114.46 71.1516 114.65 71.1516 114.87ZM69.5036 116.745V115.332C69.5036 115.224 69.4743 115.141 69.4157 115.083L68.5734 114.255C68.5051 114.187 68.4196 114.152 68.3171 114.152H67.2258C67.1135 114.152 67.0231 114.187 66.9548 114.255L66.1271 115.083C66.0588 115.151 66.0246 115.234 66.0246 115.332V116.745C66.0246 116.892 66.071 117.014 66.1638 117.111C66.2565 117.209 66.3737 117.258 66.5153 117.258H69.0056C69.1472 117.258 69.2644 117.209 69.3571 117.111C69.4548 117.009 69.5036 116.887 69.5036 116.745ZM74.9314 112.907L78.3958 118.964C78.43 119.013 78.4544 119.038 78.469 119.038C78.4886 119.038 78.4983 119.003 78.4983 118.935V113.31C78.4983 113.081 78.5789 112.888 78.74 112.731C78.9061 112.575 79.1062 112.497 79.3406 112.497C79.5701 112.497 79.7605 112.575 79.9119 112.731C80.0682 112.888 80.1463 113.081 80.1463 113.31V122.187C80.1463 122.417 80.0682 122.609 79.9119 122.766C79.7605 122.922 79.5701 123 79.3406 123C79.033 123 78.7864 122.866 78.6009 122.597L75.1219 116.489C75.1072 116.44 75.0828 116.416 75.0486 116.416C75.0291 116.416 75.0193 116.45 75.0193 116.518V122.187C75.0193 122.417 74.9388 122.609 74.7776 122.766C74.6165 122.922 74.4212 123 74.1917 123C73.9622 123 73.7669 122.922 73.6058 122.766C73.4495 122.609 73.3714 122.417 73.3714 122.187V113.31C73.3714 113.081 73.4495 112.888 73.6058 112.731C73.7669 112.575 73.9622 112.497 74.1917 112.497C74.3431 112.497 74.4871 112.536 74.6238 112.614C74.7654 112.688 74.868 112.785 74.9314 112.907ZM83.8017 116.943H87.7348C87.9643 116.943 88.1522 117.019 88.2987 117.17C88.4501 117.316 88.5258 117.504 88.5258 117.734C88.5258 117.968 88.4501 118.164 88.2987 118.32C88.1522 118.471 87.9643 118.547 87.7348 118.547H83.8017C83.5722 118.547 83.3793 118.469 83.223 118.312C83.0717 118.156 82.996 117.963 82.996 117.734C82.996 117.504 83.0717 117.316 83.223 117.17C83.3793 117.019 83.5722 116.943 83.8017 116.943ZM91.3608 122.172V113.325C91.3608 113.095 91.439 112.9 91.5952 112.739C91.7563 112.578 91.9517 112.497 92.1812 112.497H97.3447C97.5742 112.497 97.7622 112.578 97.9087 112.739C98.0601 112.895 98.1357 113.09 98.1357 113.325C98.1357 113.559 98.0601 113.757 97.9087 113.918C97.7622 114.074 97.5742 114.152 97.3447 114.152H93.5142C93.3726 114.152 93.2529 114.201 93.1553 114.299C93.0576 114.396 93.0088 114.516 93.0088 114.658V116.43C93.0088 116.577 93.0576 116.701 93.1553 116.804C93.2529 116.906 93.3726 116.958 93.5142 116.958H96.3486C96.583 116.958 96.7759 117.033 96.9272 117.185C97.0835 117.331 97.1616 117.519 97.1616 117.749C97.1616 117.978 97.0835 118.171 96.9272 118.327C96.771 118.483 96.5781 118.562 96.3486 118.562H93.5142C93.3726 118.562 93.2529 118.613 93.1553 118.715C93.0576 118.818 93.0088 118.94 93.0088 119.082V120.839C93.0088 120.981 93.0576 121.103 93.1553 121.206C93.2529 121.303 93.3726 121.352 93.5142 121.352H97.3447C97.5742 121.352 97.7622 121.43 97.9087 121.586C98.0601 121.743 98.1357 121.938 98.1357 122.172C98.1357 122.407 98.0601 122.604 97.9087 122.766C97.7622 122.922 97.5742 123 97.3447 123H92.1812C91.9517 123 91.7563 122.919 91.5952 122.758C91.439 122.597 91.3608 122.402 91.3608 122.172ZM105.483 114.943V113.31C105.483 113.081 105.563 112.888 105.724 112.731C105.89 112.575 106.09 112.497 106.325 112.497C106.554 112.497 106.745 112.575 106.896 112.731C107.052 112.888 107.13 113.081 107.13 113.31V115.456C107.13 115.7 107.05 115.886 106.889 116.013L105.497 117.39C105.395 117.507 105.343 117.626 105.343 117.749C105.343 117.871 105.395 117.99 105.497 118.107L106.889 119.492C107.05 119.619 107.13 119.804 107.13 120.048V122.187C107.13 122.417 107.052 122.609 106.896 122.766C106.745 122.922 106.554 123 106.325 123C106.09 123 105.89 122.922 105.724 122.766C105.563 122.609 105.483 122.417 105.483 122.187V120.554C105.483 120.432 105.453 120.341 105.395 120.283L104.12 118.994C104.013 118.886 103.886 118.833 103.739 118.833C103.608 118.833 103.488 118.886 103.38 118.994L102.106 120.283C102.038 120.351 102.004 120.441 102.004 120.554V122.187C102.004 122.417 101.923 122.609 101.762 122.766C101.601 122.922 101.405 123 101.176 123C100.946 123 100.751 122.922 100.59 122.766C100.434 122.609 100.356 122.417 100.356 122.187V120.048C100.356 119.809 100.439 119.624 100.605 119.492L101.989 118.107C102.096 118 102.15 117.88 102.15 117.749C102.15 117.617 102.096 117.497 101.989 117.39L100.605 116.013C100.439 115.881 100.356 115.695 100.356 115.456V113.31C100.356 113.081 100.434 112.888 100.59 112.731C100.751 112.575 100.946 112.497 101.176 112.497C101.405 112.497 101.601 112.575 101.762 112.731C101.923 112.888 102.004 113.081 102.004 113.31V114.943C102.004 115.056 102.038 115.146 102.106 115.214L103.38 116.503C103.493 116.616 103.612 116.672 103.739 116.672C103.881 116.672 104.008 116.616 104.12 116.503L105.395 115.214C105.453 115.156 105.483 115.065 105.483 114.943ZM113.562 114.658V122.224C113.562 122.453 113.484 122.646 113.327 122.802C113.171 122.954 112.973 123.029 112.734 123.029C112.505 123.029 112.309 122.954 112.148 122.802C111.992 122.646 111.914 122.453 111.914 122.224V114.658C111.914 114.516 111.863 114.396 111.76 114.299C111.662 114.201 111.543 114.152 111.401 114.152H110.141C109.912 114.152 109.719 114.072 109.563 113.911C109.406 113.75 109.328 113.554 109.328 113.325C109.328 113.095 109.406 112.9 109.563 112.739C109.719 112.578 109.912 112.497 110.141 112.497H115.349C115.578 112.497 115.766 112.578 115.913 112.739C116.064 112.895 116.14 113.09 116.14 113.325C116.14 113.559 116.064 113.757 115.913 113.918C115.766 114.074 115.578 114.152 115.349 114.152H114.074C113.933 114.152 113.811 114.201 113.708 114.299C113.611 114.396 113.562 114.516 113.562 114.658ZM118.345 122.172V113.325C118.345 113.095 118.423 112.9 118.579 112.739C118.741 112.578 118.936 112.497 119.165 112.497H124.329C124.558 112.497 124.746 112.578 124.893 112.739C125.044 112.895 125.12 113.09 125.12 113.325C125.12 113.559 125.044 113.757 124.893 113.918C124.746 114.074 124.558 114.152 124.329 114.152H120.498C120.357 114.152 120.237 114.201 120.139 114.299C120.042 114.396 119.993 114.516 119.993 114.658V116.43C119.993 116.577 120.042 116.701 120.139 116.804C120.237 116.906 120.357 116.958 120.498 116.958H123.333C123.567 116.958 123.76 117.033 123.911 117.185C124.068 117.331 124.146 117.519 124.146 117.749C124.146 117.978 124.068 118.171 123.911 118.327C123.755 118.483 123.562 118.562 123.333 118.562H120.498C120.357 118.562 120.237 118.613 120.139 118.715C120.042 118.818 119.993 118.94 119.993 119.082V120.839C119.993 120.981 120.042 121.103 120.139 121.206C120.237 121.303 120.357 121.352 120.498 121.352H124.329C124.558 121.352 124.746 121.43 124.893 121.586C125.044 121.743 125.12 121.938 125.12 122.172C125.12 122.407 125.044 122.604 124.893 122.766C124.746 122.922 124.558 123 124.329 123H119.165C118.936 123 118.741 122.919 118.579 122.758C118.423 122.597 118.345 122.402 118.345 122.172ZM128.9 112.907L132.364 118.964C132.398 119.013 132.423 119.038 132.437 119.038C132.457 119.038 132.467 119.003 132.467 118.935V113.31C132.467 113.081 132.547 112.888 132.708 112.731C132.874 112.575 133.075 112.497 133.309 112.497C133.538 112.497 133.729 112.575 133.88 112.731C134.037 112.888 134.115 113.081 134.115 113.31V122.187C134.115 122.417 134.037 122.609 133.88 122.766C133.729 122.922 133.538 123 133.309 123C133.001 123 132.755 122.866 132.569 122.597L129.09 116.489C129.076 116.44 129.051 116.416 129.017 116.416C128.997 116.416 128.988 116.45 128.988 116.518V122.187C128.988 122.417 128.907 122.609 128.746 122.766C128.585 122.922 128.39 123 128.16 123C127.931 123 127.735 122.922 127.574 122.766C127.418 122.609 127.34 122.417 127.34 122.187V113.31C127.34 113.081 127.418 112.888 127.574 112.731C127.735 112.575 127.931 112.497 128.16 112.497C128.311 112.497 128.455 112.536 128.592 112.614C128.734 112.688 128.836 112.785 128.9 112.907ZM141.322 112.739L142.868 114.299C143.029 114.46 143.109 114.65 143.109 114.87V120.627C143.109 120.847 143.029 121.037 142.868 121.198L141.322 122.758C141.161 122.919 140.978 123 140.773 123H137.155C136.925 123 136.73 122.919 136.569 122.758C136.413 122.597 136.334 122.402 136.334 122.172V113.325C136.334 113.095 136.413 112.9 136.569 112.739C136.73 112.578 136.925 112.497 137.155 112.497H140.773C140.978 112.497 141.161 112.578 141.322 112.739ZM140.531 121.242L141.374 120.422C141.432 120.349 141.461 120.258 141.461 120.151V115.354C141.461 115.246 141.432 115.156 141.374 115.083L140.531 114.255C140.463 114.187 140.377 114.152 140.275 114.152H138.473C138.332 114.152 138.214 114.201 138.122 114.299C138.029 114.396 137.982 114.516 137.982 114.658V120.839C137.982 120.986 138.029 121.108 138.122 121.206C138.214 121.303 138.332 121.352 138.473 121.352H140.275C140.373 121.352 140.458 121.315 140.531 121.242ZM145.329 122.172V113.325C145.329 113.095 145.407 112.9 145.564 112.739C145.725 112.578 145.92 112.497 146.15 112.497H151.313C151.543 112.497 151.731 112.578 151.877 112.739C152.028 112.895 152.104 113.09 152.104 113.325C152.104 113.559 152.028 113.757 151.877 113.918C151.731 114.074 151.543 114.152 151.313 114.152H147.483C147.341 114.152 147.221 114.201 147.124 114.299C147.026 114.396 146.977 114.516 146.977 114.658V116.43C146.977 116.577 147.026 116.701 147.124 116.804C147.221 116.906 147.341 116.958 147.483 116.958H150.317C150.551 116.958 150.744 117.033 150.896 117.185C151.052 117.331 151.13 117.519 151.13 117.749C151.13 117.978 151.052 118.171 150.896 118.327C150.739 118.483 150.546 118.562 150.317 118.562H147.483C147.341 118.562 147.221 118.613 147.124 118.715C147.026 118.818 146.977 118.94 146.977 119.082V120.839C146.977 120.981 147.026 121.103 147.124 121.206C147.221 121.303 147.341 121.352 147.483 121.352H151.313C151.543 121.352 151.731 121.43 151.877 121.586C152.028 121.743 152.104 121.938 152.104 122.172C152.104 122.407 152.028 122.604 151.877 122.766C151.731 122.922 151.543 123 151.313 123H146.15C145.92 123 145.725 122.919 145.564 122.758C145.407 122.597 145.329 122.402 145.329 122.172ZM159.312 112.739L160.857 114.299C161.018 114.46 161.099 114.65 161.099 114.87V120.627C161.099 120.847 161.018 121.037 160.857 121.198L159.312 122.758C159.151 122.919 158.967 123 158.762 123H155.144C154.915 123 154.719 122.919 154.558 122.758C154.402 122.597 154.324 122.402 154.324 122.172V113.325C154.324 113.095 154.402 112.9 154.558 112.739C154.719 112.578 154.915 112.497 155.144 112.497H158.762C158.967 112.497 159.151 112.578 159.312 112.739ZM158.521 121.242L159.363 120.422C159.422 120.349 159.451 120.258 159.451 120.151V115.354C159.451 115.246 159.422 115.156 159.363 115.083L158.521 114.255C158.452 114.187 158.367 114.152 158.264 114.152H156.463C156.321 114.152 156.204 114.201 156.111 114.299C156.018 114.396 155.972 114.516 155.972 114.658V120.839C155.972 120.986 156.018 121.108 156.111 121.206C156.204 121.303 156.321 121.352 156.463 121.352H158.264C158.362 121.352 158.447 121.315 158.521 121.242ZM173.961 115.354V120.151C173.961 120.263 173.996 120.354 174.064 120.422L174.906 121.242C174.979 121.315 175.07 121.352 175.177 121.352H176.268C176.366 121.352 176.452 121.315 176.525 121.242L177.382 120.422C177.44 120.378 177.47 120.288 177.47 120.151V119.711C177.47 119.482 177.548 119.292 177.704 119.14C177.865 118.984 178.063 118.906 178.297 118.906C178.527 118.906 178.715 118.984 178.861 119.14C179.013 119.292 179.088 119.482 179.088 119.711V120.627C179.088 120.847 179.008 121.037 178.847 121.198L177.338 122.758C177.177 122.919 176.986 123 176.767 123H174.679C174.459 123 174.264 122.915 174.093 122.744L172.548 121.198C172.392 121.042 172.313 120.852 172.313 120.627V114.87C172.313 114.646 172.392 114.455 172.548 114.299L174.093 112.753C174.264 112.583 174.459 112.497 174.679 112.497H176.767C176.986 112.497 177.177 112.578 177.338 112.739L178.847 114.299C179.008 114.46 179.088 114.65 179.088 114.87V115.786C179.088 116.02 179.013 116.215 178.861 116.372C178.715 116.523 178.527 116.599 178.297 116.599C178.068 116.599 177.872 116.521 177.711 116.364C177.55 116.208 177.47 116.015 177.47 115.786V115.354C177.47 115.217 177.44 115.126 177.382 115.083L176.525 114.255C176.456 114.187 176.371 114.152 176.268 114.152H175.177C175.065 114.152 174.975 114.187 174.906 114.255L174.064 115.083C173.996 115.151 173.961 115.241 173.961 115.354ZM188.083 114.87V122.187C188.083 122.417 188.005 122.609 187.849 122.766C187.697 122.922 187.507 123 187.277 123C187.043 123 186.843 122.922 186.677 122.766C186.516 122.609 186.435 122.417 186.435 122.187V119.418C186.435 119.277 186.386 119.157 186.289 119.06C186.196 118.957 186.079 118.906 185.937 118.906H183.447C183.305 118.906 183.188 118.955 183.095 119.052C183.002 119.15 182.956 119.272 182.956 119.418V122.187C182.956 122.417 182.875 122.609 182.714 122.766C182.553 122.922 182.358 123 182.128 123C181.899 123 181.704 122.922 181.542 122.766C181.386 122.609 181.308 122.417 181.308 122.187V114.87C181.308 114.646 181.386 114.455 181.542 114.299L183.103 112.753C183.249 112.583 183.435 112.497 183.659 112.497H185.747C185.952 112.497 186.135 112.578 186.296 112.739L187.841 114.299C188.002 114.46 188.083 114.65 188.083 114.87ZM186.435 116.745V115.332C186.435 115.224 186.406 115.141 186.347 115.083L185.505 114.255C185.437 114.187 185.351 114.152 185.249 114.152H184.157C184.045 114.152 183.955 114.187 183.886 114.255L183.059 115.083C182.99 115.151 182.956 115.234 182.956 115.332V116.745C182.956 116.892 183.002 117.014 183.095 117.111C183.188 117.209 183.305 117.258 183.447 117.258H185.937C186.079 117.258 186.196 117.209 186.289 117.111C186.386 117.009 186.435 116.887 186.435 116.745ZM194.243 118.92H192.441C192.3 118.92 192.183 118.969 192.09 119.067C191.997 119.165 191.951 119.287 191.951 119.433V122.224C191.951 122.453 191.87 122.646 191.709 122.802C191.553 122.954 191.358 123.029 191.123 123.029C190.894 123.029 190.698 122.954 190.537 122.802C190.381 122.646 190.303 122.453 190.303 122.224V113.325C190.303 113.095 190.381 112.9 190.537 112.739C190.698 112.578 190.894 112.497 191.123 112.497H194.741C194.951 112.497 195.142 112.583 195.313 112.753L196.851 114.299C197.002 114.45 197.078 114.641 197.078 114.87V116.547C197.078 116.767 196.997 116.958 196.836 117.119L196.243 117.719C196.14 117.822 196.089 117.941 196.089 118.078C196.089 118.229 196.145 118.361 196.257 118.474L196.851 119.052C197.002 119.204 197.078 119.394 197.078 119.624V122.224C197.078 122.453 197 122.646 196.843 122.802C196.692 122.954 196.502 123.029 196.272 123.029C196.038 123.029 195.837 122.954 195.671 122.802C195.51 122.646 195.43 122.453 195.43 122.224V120.122C195.43 120.009 195.4 119.924 195.342 119.865L194.5 119.023C194.431 118.955 194.346 118.92 194.243 118.92ZM194.5 117.163L195.342 116.342C195.4 116.284 195.43 116.193 195.43 116.071V115.354C195.43 115.231 195.4 115.141 195.342 115.083L194.5 114.255C194.431 114.187 194.346 114.152 194.243 114.152H192.441C192.3 114.152 192.183 114.201 192.09 114.299C191.997 114.396 191.951 114.516 191.951 114.658V116.76C191.951 116.906 191.997 117.028 192.09 117.126C192.183 117.224 192.3 117.272 192.441 117.272H194.243C194.341 117.272 194.426 117.236 194.5 117.163ZM204.425 115.214V115.039C204.425 114.951 204.395 114.87 204.337 114.797L203.809 114.255C203.741 114.187 203.651 114.152 203.538 114.152H201.846C201.734 114.152 201.644 114.187 201.575 114.255L201.048 114.797C200.98 114.865 200.946 114.946 200.946 115.039V120.466C200.946 120.559 200.98 120.639 201.048 120.708L201.575 121.242C201.649 121.315 201.739 121.352 201.846 121.352H203.538C203.646 121.352 203.736 121.315 203.809 121.242L204.337 120.708C204.395 120.634 204.425 120.554 204.425 120.466V119.067C204.425 118.925 204.376 118.806 204.278 118.708C204.185 118.61 204.068 118.562 203.926 118.562H203.077C202.857 118.562 202.667 118.483 202.506 118.327C202.344 118.171 202.264 117.978 202.264 117.749C202.264 117.524 202.344 117.336 202.506 117.185C202.667 117.033 202.857 116.958 203.077 116.958H205.267C205.496 116.958 205.687 117.033 205.838 117.185C205.994 117.331 206.072 117.519 206.072 117.749V120.927C206.072 121.142 205.997 121.337 205.845 121.513L204.586 122.744C204.439 122.915 204.246 123 204.007 123H201.363C201.114 123 200.924 122.915 200.792 122.744L199.532 121.513C199.376 121.357 199.298 121.162 199.298 120.927V114.555C199.298 114.331 199.376 114.14 199.532 113.984L200.792 112.753C200.924 112.583 201.114 112.497 201.363 112.497H204.007C204.246 112.497 204.439 112.583 204.586 112.753L205.845 113.984C205.997 114.135 206.072 114.326 206.072 114.555V115.214C206.072 115.444 205.994 115.634 205.838 115.786C205.687 115.937 205.496 116.013 205.267 116.013C205.032 116.013 204.832 115.937 204.666 115.786C204.505 115.634 204.425 115.444 204.425 115.214ZM213.58 112.753L214.84 113.984C214.992 114.135 215.067 114.326 215.067 114.555V120.942C215.067 121.171 214.992 121.362 214.84 121.513L213.58 122.744C213.434 122.915 213.241 123 213.002 123H210.358C210.109 123 209.918 122.915 209.786 122.744L208.527 121.513C208.37 121.357 208.292 121.167 208.292 120.942V114.555C208.292 114.331 208.37 114.14 208.527 113.984L209.786 112.753C209.918 112.583 210.109 112.497 210.358 112.497H213.002C213.241 112.497 213.434 112.583 213.58 112.753ZM212.804 121.242L213.331 120.708C213.39 120.634 213.419 120.549 213.419 120.451V115.053C213.419 114.956 213.39 114.87 213.331 114.797L212.804 114.255C212.736 114.187 212.645 114.152 212.533 114.152H210.841C210.729 114.152 210.638 114.187 210.57 114.255L210.043 114.797C209.974 114.865 209.94 114.951 209.94 115.053V120.451C209.94 120.554 209.974 120.639 210.043 120.708L210.57 121.242C210.643 121.315 210.734 121.352 210.841 121.352H212.533C212.64 121.352 212.731 121.315 212.804 121.242ZM231.409 119.382V113.31C231.409 113.081 231.489 112.888 231.65 112.731C231.816 112.575 232.017 112.497 232.251 112.497C232.48 112.497 232.671 112.575 232.822 112.731C232.979 112.888 233.057 113.081 233.057 113.31V119.88C233.057 120.129 232.976 120.324 232.815 120.466L230.493 122.758C230.332 122.919 230.146 123 229.937 123H229.395C229.189 123 229.006 122.919 228.845 122.758L226.531 120.466C226.365 120.3 226.282 120.104 226.282 119.88V113.31C226.282 113.081 226.36 112.888 226.516 112.731C226.677 112.575 226.873 112.497 227.102 112.497C227.332 112.497 227.527 112.575 227.688 112.731C227.849 112.888 227.93 113.081 227.93 113.31V119.382C227.93 119.484 227.964 119.57 228.032 119.638L229.307 120.957C229.399 121.049 229.524 121.096 229.68 121.096C229.817 121.096 229.939 121.049 230.046 120.957L231.321 119.638C231.379 119.58 231.409 119.494 231.409 119.382ZM242.051 114.87V122.187C242.051 122.417 241.973 122.609 241.817 122.766C241.666 122.922 241.475 123 241.246 123C241.011 123 240.811 122.922 240.645 122.766C240.484 122.609 240.403 122.417 240.403 122.187V119.418C240.403 119.277 240.355 119.157 240.257 119.06C240.164 118.957 240.047 118.906 239.905 118.906H237.415C237.274 118.906 237.156 118.955 237.064 119.052C236.971 119.15 236.924 119.272 236.924 119.418V122.187C236.924 122.417 236.844 122.609 236.683 122.766C236.522 122.922 236.326 123 236.097 123C235.867 123 235.672 122.922 235.511 122.766C235.355 122.609 235.276 122.417 235.276 122.187V114.87C235.276 114.646 235.355 114.455 235.511 114.299L237.071 112.753C237.217 112.583 237.403 112.497 237.628 112.497H239.715C239.92 112.497 240.103 112.578 240.264 112.739L241.81 114.299C241.971 114.46 242.051 114.65 242.051 114.87ZM240.403 116.745V115.332C240.403 115.224 240.374 115.141 240.316 115.083L239.473 114.255C239.405 114.187 239.319 114.152 239.217 114.152H238.126C238.013 114.152 237.923 114.187 237.855 114.255L237.027 115.083C236.959 115.151 236.924 115.234 236.924 115.332V116.745C236.924 116.892 236.971 117.014 237.064 117.111C237.156 117.209 237.274 117.258 237.415 117.258H239.905C240.047 117.258 240.164 117.209 240.257 117.111C240.355 117.009 240.403 116.887 240.403 116.745ZM245.831 112.907L249.296 118.964C249.33 119.013 249.354 119.038 249.369 119.038C249.388 119.038 249.398 119.003 249.398 118.935V113.31C249.398 113.081 249.479 112.888 249.64 112.731C249.806 112.575 250.006 112.497 250.24 112.497C250.47 112.497 250.66 112.575 250.812 112.731C250.968 112.888 251.046 113.081 251.046 113.31V122.187C251.046 122.417 250.968 122.609 250.812 122.766C250.66 122.922 250.47 123 250.24 123C249.933 123 249.686 122.866 249.501 122.597L246.022 116.489C246.007 116.44 245.983 116.416 245.948 116.416C245.929 116.416 245.919 116.45 245.919 116.518V122.187C245.919 122.417 245.839 122.609 245.677 122.766C245.516 122.922 245.321 123 245.092 123C244.862 123 244.667 122.922 244.506 122.766C244.349 122.609 244.271 122.417 244.271 122.187V113.31C244.271 113.081 244.349 112.888 244.506 112.731C244.667 112.575 244.862 112.497 245.092 112.497C245.243 112.497 245.387 112.536 245.524 112.614C245.665 112.688 245.768 112.785 245.831 112.907Z" fill="#06070E" fill-opacity="0.38"/>
</svg>
